<?xml version="1.0" encoding="utf-8" ?><svg xmlns="http://www.w3.org/2000/svg" xmlns:xlink="http://www.w3.org/1999/xlink" width="128" height="128" viewBox="117 128 795 816"><path fill="#79A9E4" d="M579.856 148.348C589.187 152.836 601.787 160.128 610.76 165.389C611.253 167.731 611.042 175.313 610.97 178.05C615.388 179.533 636.048 191.445 641.504 194.447L725.684 241.424C770.508 265.91 815.04 290.929 859.269 316.476C864.368 319.457 883.54 329.466 887.027 332.518L886.91 368.059C884.299 370.48 881.325 372.144 878.111 373.654L878.037 560.414L878.018 620.995C878.015 629.253 877.54 644.564 878.269 652.365C876.506 653.927 875.774 654.205 873.64 655.316C868.424 658.382 852.425 665.907 849.119 668.848L848.516 669.105L848.52 669.412C848.576 674.396 848.329 698.754 846.945 702.214C846.184 702.824 845.785 703.14 844.97 703.693C829.92 712.005 814.824 720.235 799.686 728.385C788.728 734.404 777.462 741.038 766.46 746.778C764.942 747.619 763.201 748.643 761.643 749.328C755.999 753.179 740.895 760.914 734.392 764.471L677.631 795.519L490.498 897.62C490.521 900.236 490.988 905.695 488.972 907.144C480.859 912.976 468.318 919.118 459.521 923.867L458.567 924.341C455.277 923.313 430.229 908.959 427.131 906.711C426.868 903.925 426.962 900.631 426.959 897.796C407.414 885.947 382.38 873.063 362.095 861.896L239.566 794.176L197.826 771.33C192.962 768.653 181.986 762.929 178.032 759.947C174.78 761.932 172.025 763.634 168.616 765.321C165.582 764.572 146.936 754.06 143.076 751.923C140.639 750.478 140.179 750.031 138.146 748.03C137.787 739.981 137.708 722.18 138.344 714.674L141.307 712.588C142.954 711.427 143.971 711.086 145.847 710.291C146.634 693.465 145.982 671.125 145.979 654.005L145.965 545.522L145.986 473.656C145.996 463.364 146.568 444.126 145.563 434.683C142.912 433.438 139.592 431.396 136.995 429.891L136.978 393.809C138.328 391.068 163.956 377.713 168.379 375.288L175.721 378.869C183.98 374.843 193.595 369.143 201.787 364.604L237.117 345.255C244.509 341.125 252.665 336.314 260.235 332.654C262.817 331.318 267.037 328.653 269.925 327.052C276.977 323.143 284.702 319.218 291.562 315.097C283.3 309.894 269.454 304.104 262.433 298.11C252.182 289.358 245.196 273.166 244.43 259.731C242.054 247.97 245.508 232.784 249.695 221.708C252.379 213.135 262.774 196.597 269.531 190.91C284.775 178.146 300.706 171.12 320.783 180.01C326.247 182.43 331.673 185.888 336.927 188.825L364.377 204.216L430.942 241.287C437.066 237.338 444.217 233.368 450.688 229.98C483.352 212.88 515.59 193.142 548.505 176.729C548.496 173.329 548.34 168.682 548.81 165.443C559.119 159.887 569.543 153.653 579.856 148.348Z"/><path fill="#2F5B99" d="M824.495 328.929C825.304 332.757 824.891 331.942 828.395 334.416C835.076 339.134 850.281 345.514 856.099 349.999C866.059 343.956 876.805 338.282 887.027 332.518L886.91 368.059C884.299 370.48 881.325 372.144 878.111 373.654L878.037 560.414L878.018 620.995C878.015 629.253 877.54 644.564 878.269 652.365C876.506 653.927 875.774 654.205 873.64 655.316C868.424 658.382 852.425 665.907 849.119 668.848L848.516 669.105L848.52 669.412C848.576 674.396 848.329 698.754 846.945 702.214C846.184 702.824 845.785 703.14 844.97 703.693C829.92 712.005 814.824 720.235 799.686 728.385C788.728 734.404 777.462 741.038 766.46 746.778C764.942 747.619 763.201 748.643 761.643 749.328C755.999 753.179 740.895 760.914 734.392 764.471L677.631 795.519L490.498 897.62C490.521 900.236 490.988 905.695 488.972 907.144C480.859 912.976 468.318 919.118 459.521 923.867C457.929 920.134 460.026 896.027 458.763 889.704C460.215 888.218 462.325 887.376 464.133 886.409C472.741 881.809 481.488 877.428 489.633 872.023C487.408 870.273 486.402 869.631 483.933 868.231L482.397 867.552C473.289 871.779 465.474 876.977 457.114 881.164C456.271 861.705 456.951 836.845 456.937 817.059L456.971 687.984L456.923 629.276C456.919 625.158 456.66 606.876 457.256 603.788L458.609 602.899C459.715 600.608 459.244 571.793 458.674 568.135C460.322 566.527 464.399 564.782 466.478 563.453C476.304 557.169 487.007 552.68 497.237 547.468C507.333 542.323 517.678 536.32 527.618 530.801L848.833 353.516C847.065 351.127 829.282 342.317 824.82 339.246C824.476 335.877 824.528 332.326 824.495 328.929Z"/><path fill="#3A6BAE" d="M682.495 474.427C691.64 469.782 702.95 463.239 711.92 457.96L711.953 569.505L712.826 568.545C714.293 569.476 715.23 570.2 716.912 570.69C715.793 573.837 714.738 576.786 713.789 579.992C710.561 593.333 709.202 605.064 712.898 618.496C716.145 627.068 719.629 632.625 729.034 635.249C732.695 635.574 734.888 635.597 738.604 635.245L739.58 635.777C739.758 641.417 739.267 647.302 739.583 652.762C739.531 672.102 738.901 695.869 739.571 714.958C739.528 717.424 739.615 726.543 739.28 728.245L729.049 722.799C723.724 725.685 717.727 728.799 712.651 732.028C711.726 733.67 711.85 742.01 712.47 743.846C704.981 746.736 690.538 755.73 682 759.89L681.933 759.207C679.077 757.828 675.543 755.672 672.516 754.111C671.298 751.241 672.341 682.313 671.787 672.569C666.194 674.858 663.727 675.672 657.77 676.582C655.276 676.596 651.235 676.681 648.966 676.006C624.729 668.799 629.995 632.315 636.543 614.62C640.954 602.699 646.24 595.338 654.682 586.803C661.826 580.953 664.6 578.724 673.176 575.809C676.667 574.63 678.902 574.486 682.456 574.381C682.583 573.224 682.518 570.774 682.518 569.505L682.739 567.816C682.068 560.318 682.509 544.508 682.506 536.401L682.495 474.427Z"/><path fill="white" d="M682.456 574.381C701.988 575.037 705.317 599.13 703.352 614.282C697.267 619.257 687.968 622.523 681.888 626.552C683.257 630.957 682.039 637.409 682.773 641.955C685.372 638.43 687.455 635.372 689.829 631.689C693.787 634.698 697.898 637.742 701.765 640.849L698.657 646.591C692.723 655.136 689.677 658.865 681.879 665.598C678.156 668.547 675.932 670.215 671.787 672.569C666.194 674.858 663.727 675.672 657.77 676.582C655.276 676.596 651.235 676.681 648.966 676.006C624.729 668.799 629.995 632.315 636.543 614.62C640.954 602.699 646.24 595.338 654.682 586.803C661.826 580.953 664.6 578.724 673.176 575.809C676.667 574.63 678.902 574.486 682.456 574.381Z"/><path fill="#2F5B99" d="M652.176 642.348C657.99 638.835 665.745 635.042 671.887 631.844C671.896 635.046 671.592 649.184 672.488 650.935C668.827 653.013 662.451 654.292 658.589 652.128C654.281 649.714 653.502 646.696 652.176 642.348Z"/><path fill="#1E4273" d="M681.888 626.552C683.257 630.957 682.039 637.409 682.773 641.955C679.896 645.526 676.695 648.905 672.488 650.935C671.592 649.184 671.896 635.046 671.887 631.844C674.912 630.055 678.717 628.198 681.888 626.552Z"/><path fill="#2F5B99" d="M671.707 596.343C680.153 595.804 682.017 601.104 683.136 608.51C679.293 610.882 676.579 612.419 672.535 614.416C666.48 618.006 658.55 621.972 652.238 625.348C654.9 612.19 658.451 601.981 671.707 596.343Z"/><path fill="#1E4273" d="M671.707 596.343C680.153 595.804 682.017 601.104 683.136 608.51C679.293 610.882 676.579 612.419 672.535 614.416C671.892 612.472 671.848 599.502 671.707 596.343Z"/><path fill="#2F5B99" d="M712.898 618.496C716.145 627.068 719.629 632.625 729.034 635.249C732.695 635.574 734.888 635.597 738.604 635.245L739.58 635.777C739.758 641.417 739.267 647.302 739.583 652.762C739.531 672.102 738.901 695.869 739.571 714.958C739.528 717.424 739.615 726.543 739.28 728.245L729.049 722.799C723.724 725.685 717.727 728.799 712.651 732.028C711.778 729.422 712.023 716.571 712.004 713.181L712.056 674.536L711.94 639.165C711.891 633.209 711.821 627.111 711.771 621.149C711.762 620.034 712.272 619.35 712.898 618.496Z"/><path fill="#1E4273" d="M729.034 635.249C732.695 635.574 734.888 635.597 738.604 635.245L739.58 635.777C739.758 641.417 739.267 647.302 739.583 652.762C739.531 672.102 738.901 695.869 739.571 714.958C739.528 717.424 739.615 726.543 739.28 728.245L729.049 722.799C728.58 701.63 729.287 680.151 728.983 658.947C728.873 651.272 728.706 642.893 729.034 635.249Z"/><path fill="#1E4273" d="M681.879 665.598C682.562 667.165 682.705 668.039 682.686 669.774C682.409 695.298 682.625 720.832 682.577 746.358C682.572 749.089 682.854 757.135 681.933 759.207C679.077 757.828 675.543 755.672 672.516 754.111C671.298 751.241 672.341 682.313 671.787 672.569C675.932 670.215 678.156 668.547 681.879 665.598Z"/><path fill="#2E568C" d="M711.953 569.505L712.826 568.545C714.293 569.476 715.23 570.2 716.912 570.69C715.793 573.837 714.738 576.786 713.789 579.992C711.401 576.407 711.965 573.975 711.953 569.505Z"/><path fill="#2F5B99" d="M701.765 640.849C704.897 641.885 704.373 646.613 702.548 648.606C700.806 648.763 699.701 648.045 698.657 646.591L701.765 640.849Z"/><path fill="#3A6BAE" d="M625.386 505.947C634.777 500.967 645.58 494.665 654.572 490.09C654.534 498.907 653.983 585.056 654.682 586.803C646.24 595.338 640.954 602.699 636.543 614.62C629.995 632.315 624.729 668.799 648.966 676.006C651.235 676.681 655.276 676.596 657.77 676.582C663.727 675.672 666.194 674.858 671.787 672.569C672.341 682.313 671.298 751.241 672.516 754.111C668.281 755.612 659.217 761.098 655.061 763.571C654.568 766.798 654.86 771.574 655.021 774.917C649.739 777.629 629.217 789.911 625.506 790.462L624.914 790.656C621.13 788.985 618.482 787.288 614.941 785.118C609.437 788.081 603.909 791.001 598.359 793.878C596.252 795.559 597.039 803.359 597.026 806.387C592.242 809.117 571.556 822.388 567.948 821.423L567.108 821.686C565.434 821.093 559.78 817.631 557.297 816.409C557.463 797.212 556.787 778.086 557.138 758.925C558.698 757.786 565.02 754.664 567.07 753.602C568.219 752.903 568.781 751.348 568.853 750.063C569.554 737.66 568.93 725.247 569.404 712.801C580.349 718.562 586.391 716.368 596.307 710.066C604.655 704.422 608.711 698.994 613.991 690.484C619.854 679.893 621.558 673.88 624.002 662.28C624.644 651.121 625.725 649.217 624.09 637.081C622.01 628.949 620.576 624.424 614.182 618.642C615.523 612.39 614.897 590.881 614.884 583.037L615.014 511.307C617.78 509.963 622.876 506.627 625.386 505.947Z"/><path fill="#3A6BAE" d="M596.307 710.066C598.783 721.674 595.186 789.938 598.359 793.878C596.252 795.559 597.039 803.359 597.026 806.387C592.242 809.117 571.556 822.388 567.948 821.423L567.108 821.686C565.434 821.093 559.78 817.631 557.297 816.409C557.463 797.212 556.787 778.086 557.138 758.925C558.698 757.786 565.02 754.664 567.07 753.602C568.219 752.903 568.781 751.348 568.853 750.063C569.554 737.66 568.93 725.247 569.404 712.801C580.349 718.562 586.391 716.368 596.307 710.066Z"/><path fill="#1E4273" d="M567.07 753.602C568.079 756.432 567.775 766.451 567.754 769.952L567.547 802.177C567.523 807.404 567.256 816.448 567.948 821.423L567.108 821.686C565.434 821.093 559.78 817.631 557.297 816.409C557.463 797.212 556.787 778.086 557.138 758.925C558.698 757.786 565.02 754.664 567.07 753.602Z"/><path fill="#2E568C" d="M584.749 718.695C587.2 718.413 588.048 718.426 590.519 718.582L590.995 719.132L590.058 719.542C587.624 719.527 586.123 719.571 583.694 719.182L584.749 718.695Z"/><path fill="#2F5B99" d="M596.307 710.066C604.655 704.422 608.711 698.994 613.991 690.484C615.387 697.713 614.942 711.565 614.945 719.443L614.96 763.655C614.959 770.191 614.661 778.82 614.941 785.118C609.437 788.081 603.909 791.001 598.359 793.878C595.186 789.938 598.783 721.674 596.307 710.066Z"/><path fill="#2F5B99" d="M657.77 676.582C663.727 675.672 666.194 674.858 671.787 672.569C672.341 682.313 671.298 751.241 672.516 754.111C668.281 755.612 659.217 761.098 655.061 763.571C654.17 760.992 654.556 677.575 654.759 677.217L657.77 676.582Z"/><path fill="#1E4273" d="M615.014 511.307C617.78 509.963 622.876 506.627 625.386 505.947L625.56 591.684C625.558 598.765 626.2 633.339 624.09 637.081C622.01 628.949 620.576 624.424 614.182 618.642C615.523 612.39 614.897 590.881 614.884 583.037L615.014 511.307Z"/><path fill="#1E4273" d="M624.002 662.28C624.788 663.277 625.279 663.966 625.311 665.304C626.287 706.947 624.815 748.834 625.506 790.462L624.914 790.656C621.13 788.985 618.482 787.288 614.941 785.118C614.661 778.82 614.959 770.191 614.96 763.655L614.945 719.443C614.942 711.565 615.387 697.713 613.991 690.484C619.854 679.893 621.558 673.88 624.002 662.28Z"/><path fill="#2F5B99" d="M839.191 663.306C842.095 664.912 845.488 666.898 848.433 668.304L848.516 669.105L848.52 669.412C848.576 674.396 848.329 698.754 846.945 702.214C846.184 702.824 845.785 703.14 844.97 703.693C829.92 712.005 814.824 720.235 799.686 728.385C788.728 734.404 777.462 741.038 766.46 746.778C764.942 747.619 763.201 748.643 761.643 749.328C755.999 753.179 740.895 760.914 734.392 764.471L677.631 795.519L490.498 897.62C490.521 900.236 490.988 905.695 488.972 907.144C480.859 912.976 468.318 919.118 459.521 923.867C457.929 920.134 460.026 896.027 458.763 889.704C460.215 888.218 462.325 887.376 464.133 886.409C472.741 881.809 481.488 877.428 489.633 872.023C487.408 870.273 486.402 869.631 483.933 868.231C486.004 866.03 506.138 855.406 510.033 853.422C517.144 849.009 532.447 840.644 539.784 837.41L539.981 825.345C545.629 822.606 551.683 819.316 557.297 816.409C559.78 817.631 565.434 821.093 567.108 821.686L567.948 821.423C571.556 822.388 592.242 809.117 597.026 806.387C597.039 803.359 596.252 795.559 598.359 793.878C603.909 791.001 609.437 788.081 614.941 785.118C618.482 787.288 621.13 788.985 624.914 790.656L625.506 790.462C629.217 789.911 649.739 777.629 655.021 774.917C654.86 771.574 654.568 766.798 655.061 763.571C659.217 761.098 668.281 755.612 672.516 754.111C675.543 755.672 679.077 757.828 681.933 759.207L682 759.89C690.538 755.73 704.981 746.736 712.47 743.846C711.85 742.01 711.726 733.67 712.651 732.028C717.727 728.799 723.724 725.685 729.049 722.799L739.28 728.245C739.615 726.543 739.528 717.424 739.571 714.958C740.139 718.779 740.08 724.303 740.129 728.286C746.868 725.507 764.974 716.908 769.995 712.115C769.175 709.968 769.481 703.562 769.598 701.005C775.23 697.668 780.536 694.554 786.308 691.47C789.671 693.222 793.019 695.002 796.353 696.81L796.564 697.486C807.748 692.565 816.176 687.403 826.677 681.478C826.389 678.32 826.491 673.209 826.453 669.901C830.612 667.654 834.978 665.477 839.191 663.306Z"/><path fill="#1E4273" d="M790.037 708.054C790.872 710.642 790.529 720.792 790.532 724.173C785.156 727.512 779.166 729.872 774.028 733.07C762.53 740.227 748.013 746.197 737.164 753.886C737.036 747.845 736.975 741.803 736.981 735.761C740.817 734.065 779.972 713.446 781.074 711.841C784.065 710.417 786.85 708.968 790.037 708.054Z"/><path fill="#79A9E4" d="M598.359 793.878C603.909 791.001 609.437 788.081 614.941 785.118C618.482 787.288 621.13 788.985 624.914 790.656C623.132 792.824 601.222 804.132 597.026 806.387C597.039 803.359 596.252 795.559 598.359 793.878Z"/><path fill="#79A9E4" d="M786.308 691.47C789.671 693.222 793.019 695.002 796.353 696.81L796.564 697.486C791.88 700.501 785.363 703.736 780.291 706.743C777.814 708.067 772.821 710.572 770.691 712.037L769.995 712.115C769.175 709.968 769.481 703.562 769.598 701.005C775.23 697.668 780.536 694.554 786.308 691.47Z"/><path fill="#79A9E4" d="M655.061 763.571C659.217 761.098 668.281 755.612 672.516 754.111C675.543 755.672 679.077 757.828 681.933 759.207L682 759.89C674.554 764.155 662.498 771.509 655.021 774.917C654.86 771.574 654.568 766.798 655.061 763.571Z"/><path fill="#79A9E4" d="M729.049 722.799L739.28 728.245C732.158 733.429 720.242 739.377 712.47 743.846C711.85 742.01 711.726 733.67 712.651 732.028C717.727 728.799 723.724 725.685 729.049 722.799Z"/><path fill="#79A9E4" d="M557.297 816.409C559.78 817.631 565.434 821.093 567.108 821.686C563.949 824.471 543.94 835.72 539.784 837.41L539.981 825.345C545.629 822.606 551.683 819.316 557.297 816.409Z"/><path fill="#79A9E4" d="M839.191 663.306C842.095 664.912 845.488 666.898 848.433 668.304L848.516 669.105L848.52 669.412C841.199 673.361 833.917 677.383 826.677 681.478C826.389 678.32 826.491 673.209 826.453 669.901C830.612 667.654 834.978 665.477 839.191 663.306Z"/><path fill="#2E568C" d="M770.691 712.037C772.821 710.572 777.814 708.067 780.291 706.743C782.037 708.08 787.958 708.283 790.037 708.054C786.85 708.968 784.065 710.417 781.074 711.841C781.756 711.11 782.058 710.824 782.641 710.015C781.441 709.451 781.866 709.598 780.547 709.416C779.829 708.564 779.929 708.739 778.998 708.259C777.26 709.186 772.441 712.151 770.994 712.545L770.691 712.037Z"/><path fill="#2E568C" d="M756.856 742.788C761.044 743.78 762.896 744.272 766.46 746.778C764.942 747.619 763.201 748.643 761.643 749.328L761.52 748.481C761.297 746.895 758.128 744.08 756.856 742.788Z"/><path fill="#1E4273" d="M602.954 809.375L604.702 809.526C606.322 811.335 605.568 822.557 605.503 825.915C589.843 835.061 572.575 843.153 556.308 852.888C555.114 852.96 555.192 852.97 554.062 852.576C552.551 849.467 553.58 841.035 553.905 837.319C557.489 833.986 569.283 827.932 573.952 825.381L602.954 809.375Z"/><path fill="#1E4273" d="M477.906 886.886L478.677 887.423C479.144 889.856 478.552 897.879 478.413 900.773C475.196 904.292 474.242 905.205 469.72 907.112C467.406 904.356 469.121 894.728 470.293 891.422C473.426 889.168 474.43 888.522 477.906 886.886Z"/><path fill="#2F5B99" d="M824.495 328.929C825.304 332.757 824.891 331.942 828.395 334.416C835.076 339.134 850.281 345.514 856.099 349.999C866.059 343.956 876.805 338.282 887.027 332.518L886.91 368.059C884.299 370.48 881.325 372.144 878.111 373.654L878.037 560.414L878.018 620.995C878.015 629.253 877.54 644.564 878.269 652.365C876.506 653.927 875.774 654.205 873.64 655.316C868.424 658.382 852.425 665.907 849.119 668.848L848.516 669.105L848.433 668.304C850.154 666.538 849.54 634.857 849.541 629.667L849.54 562.071C849.534 502.491 850.179 441.639 849.432 382.152C849.475 372.603 849.275 363.055 848.833 353.516C847.065 351.127 829.282 342.317 824.82 339.246C824.476 335.877 824.528 332.326 824.495 328.929Z"/><path fill="#5486C9" d="M824.495 328.929C825.304 332.757 824.891 331.942 828.395 334.416C835.076 339.134 850.281 345.514 856.099 349.999C855.372 361.037 856.368 374.657 855.808 386.315C853.133 384.118 852.433 383.725 849.432 382.152C849.475 372.603 849.275 363.055 848.833 353.516C847.065 351.127 829.282 342.317 824.82 339.246C824.476 335.877 824.528 332.326 824.495 328.929Z"/><path fill="#2E568C" d="M872.647 371.38C874.02 372.846 873.485 396.436 873.483 400.622C873.564 418.581 873.531 436.541 873.384 454.499L873.524 573.949C873.505 576.29 873.504 578.697 873.338 581.029C872.025 599.442 872.482 617.954 872.5 636.432L872.287 636.432C871.637 623.925 872.084 605.789 872.062 592.959L872.128 500.522L872.17 413.031C872.237 400.084 871.641 383.86 872.647 371.38Z"/><path fill="#1E4273" d="M874.889 348.899L876.028 349.781C876.312 352.311 875.595 359.774 875.401 362.646C872.837 365.506 871.677 366.66 868.472 368.655L867.592 368.297C866.175 366.444 866.899 358.302 867.015 355.5C869.858 351.606 870.338 350.992 874.889 348.899Z"/><path fill="#3A6BAE" d="M797.057 410.837C806.588 405.28 816.341 400.252 826.005 394.613C826.228 420.135 826.244 445.658 826.055 471.18L826.194 625.501C826.205 629.971 825.897 668.45 826.453 669.901C826.491 673.209 826.389 678.32 826.677 681.478C816.176 687.403 807.748 692.565 796.564 697.486L796.353 696.81C797.993 693.837 796.967 615.948 797.544 603.366C795.376 604.007 794.654 604.306 792.881 602.775C792.055 600.223 792.375 574.152 792.371 570.004C792.269 541.426 792.312 512.846 792.5 484.268C793.889 482.786 795.337 481.744 796.928 480.5C797.363 471.902 797.108 461.838 797.08 453.105L797.057 410.837Z"/><path fill="white" d="M810.725 473.084C812.228 474.427 812.922 474.838 812.962 476.862C813.21 489.394 813.012 502.043 813.003 514.582L812.995 594.017C809.009 597.085 799.358 601.583 797.544 603.366C795.376 604.007 794.654 604.306 792.881 602.775C792.055 600.223 792.375 574.152 792.371 570.004C792.269 541.426 792.312 512.846 792.5 484.268C793.889 482.786 795.337 481.744 796.928 480.5L802.951 476.909L810.725 473.084Z"/><path fill="#2F5B99" d="M802.951 476.909C801.326 474.795 800.573 476.335 799.306 473.656C800.25 470.638 808.375 472.342 810.725 473.084L802.951 476.909Z"/><path fill="#3A6BAE" d="M510.432 574.156C510.549 572.786 510.482 570.15 511.383 569.508C519.309 563.859 530.927 558.28 539.499 553.825C540.251 563.173 539.921 574.922 539.927 584.517L539.943 636.28L539.966 774.402C540.01 791.245 539.696 808.563 539.981 825.345L539.784 837.41C532.447 840.644 517.144 849.009 510.033 853.422L510.293 852.614C510.848 848.216 510.481 830.505 510.477 825.394L510.455 769.168L510.432 574.156Z"/><path fill="white" d="M597.847 615.77C604.699 614.752 608 614.895 614.182 618.642C620.576 624.424 622.01 628.949 624.09 637.081C625.725 649.217 624.644 651.121 624.002 662.28C621.558 673.88 619.854 679.893 613.991 690.484C608.711 698.994 604.655 704.422 596.307 710.066C586.391 716.368 580.349 718.562 569.404 712.801C568.93 725.247 569.554 737.66 568.853 750.063C568.781 751.348 568.219 752.903 567.07 753.602C565.02 754.664 558.698 757.786 557.138 758.925C555.302 760.097 554.061 761.051 551.953 761.679C549.89 761.331 550.819 761.741 549.162 760.21C548.748 755.357 548.968 747.797 548.971 742.768L548.965 712.386C548.951 691.431 548.183 664.642 549.159 644.106C552.109 640.585 554.068 639.637 557.987 637.414C560.787 635.971 563.863 634.165 566.9 633.506C567.875 638.048 567.889 638.943 567.617 643.429L567.888 642.905C575.549 628.086 581.773 620.898 597.847 615.77Z"/><path fill="#3A6BAE" d="M600.177 679.056C597.709 684.547 595.084 689.352 589.896 692.697C583.143 697.051 575.985 698.337 571.652 690.136C567.583 682.436 568.663 671.953 570.809 663.87C573.77 652.72 583.272 636.81 596.969 641.073C608.156 647.362 604.121 669.271 600.177 679.056Z"/><path fill="#2E568C" d="M596.969 641.073C608.156 647.362 604.121 669.271 600.177 679.056L599.25 679.576L598.44 679.137C596.27 675.268 597.931 646.621 596.969 641.073Z"/><path fill="#2E568C" d="M584.687 688.802C586.3 688.47 587.839 688.492 588.989 689.676C587.756 690.024 586.556 689.747 585.258 689.593L584.687 688.802Z"/><path fill="white" d="M740.558 539.924C741.546 539.301 742.554 538.707 743.578 538.144C751.351 533.91 759.201 531.084 767.995 533.664C782.936 541.791 782.982 557.072 782.792 572.141C777.508 576.017 772.362 578.006 766.961 581.215L768.931 581.451C770.036 583.782 768.556 585.512 769.269 588.882C773.053 592.256 776.886 595.573 780.768 598.834C776.547 608.535 773.105 611.857 766.162 619.85C757.588 627.412 750.129 632.939 738.604 635.245C734.888 635.597 732.695 635.574 729.034 635.249C719.629 632.625 716.145 627.068 712.898 618.496C709.202 605.064 710.561 593.333 713.789 579.992C714.738 576.786 715.793 573.837 716.912 570.69C720.338 562.322 723.561 557.045 729.144 549.934C732.795 545.926 736.245 543.149 740.558 539.924Z"/><path fill="#3A6BAE" d="M739.541 596.105C748.109 591.502 758.43 585.36 766.961 581.215L768.931 581.451C770.036 583.782 768.556 585.512 769.269 588.882C763.255 600.677 753.663 611.414 739.702 612.286C739.714 606.892 739.66 601.498 739.541 596.105Z"/><path fill="#1E4273" d="M739.541 596.105C739.66 601.498 739.714 606.892 739.702 612.286C734.203 609.907 732.91 606.141 731.428 600.855C734.024 598.992 736.733 597.62 739.541 596.105Z"/><path fill="#3A6BAE" d="M739.231 562.532C748.177 552.052 758.859 550.995 762.361 566.237C755.18 570.825 747.407 574.547 739.941 578.72L736.819 580.374L731.248 583.125C732.176 578.508 732.591 576.307 734.158 571.865C735.443 568.132 736.801 565.6 739.231 562.532Z"/><path fill="#2E568C" d="M739.231 562.532C740.205 565.429 739.901 575.07 739.941 578.72L736.819 580.374L731.248 583.125C732.176 578.508 732.591 576.307 734.158 571.865C735.443 568.132 736.801 565.6 739.231 562.532Z"/><path fill="#1E4273" d="M734.158 571.865C737.473 574.188 736.453 576.445 736.819 580.374L731.248 583.125C732.176 578.508 732.591 576.307 734.158 571.865Z"/><path fill="#1E4273" d="M838.56 388.407C841.512 386.334 845.973 383.068 849.432 382.152C850.179 441.639 849.534 502.491 849.54 562.071L849.541 629.667C849.54 634.857 850.154 666.538 848.433 668.304C845.488 666.898 842.095 664.912 839.191 663.306C838.286 640.966 838.88 614.827 838.874 592.271L838.9 460.096L838.944 416.693C838.963 408.421 839.213 396.428 838.56 388.407Z"/><path fill="#3A6BAE" d="M739.554 442.385C747.785 438.649 761.077 431.208 768.896 426.556C769.125 448.743 769.2 470.931 769.121 493.119C769.132 501.403 769.652 526.588 767.995 533.664C759.201 531.084 751.351 533.91 743.578 538.144C742.554 538.707 741.546 539.301 740.558 539.924C738.741 535.353 739.541 511.101 739.544 504.774L739.554 442.385Z"/><path fill="#1E4273" d="M499.953 575.469C502.437 574.026 507.654 569.88 510.046 571.175L510.432 574.156L510.455 769.168L510.477 825.394C510.481 830.505 510.848 848.216 510.293 852.614C506.677 851.105 503.616 849.174 500.263 847.178C499.699 836.032 499.932 823.326 499.936 812.081L499.979 754.942L499.953 575.469Z"/><path fill="#3A6BAE" d="M567.566 537.79C576.565 533.425 588.317 526.976 596.925 521.965C597.002 530.192 596.777 613.883 597.847 615.77C581.773 620.898 575.549 628.086 567.888 642.905L567.617 643.429C567.889 638.943 567.875 638.048 566.9 633.506L567.073 633.434C567.912 632.356 567.574 615.767 567.573 613.087L567.566 537.79Z"/><path fill="#3A6BAE" d="M766.162 619.85L767.16 620.04L767.428 619.695L768.233 619.512C770.254 625.288 768.533 676.356 769.026 686.763C769.176 689.929 768.555 698.415 769.598 701.005C769.481 703.562 769.175 709.968 769.995 712.115C764.974 716.908 746.868 725.507 740.129 728.286C740.08 724.303 740.139 718.779 739.571 714.958C738.901 695.869 739.531 672.102 739.583 652.762C739.267 647.302 739.758 641.417 739.58 635.777L738.604 635.245C750.129 632.939 757.588 627.412 766.162 619.85Z"/><path fill="#2E568C" d="M739.58 635.777L740.31 637.796C741.967 638.495 743.723 638.803 745.482 639.19C743.26 639.515 742.335 639.629 740.107 639.642C740.032 643.054 740.072 649.626 739.583 652.762C739.267 647.302 739.758 641.417 739.58 635.777Z"/><path fill="#1E4273" d="M786.597 416.614C789.706 414.446 793.605 412.405 797.057 410.837L797.08 453.105C797.108 461.838 797.363 471.902 796.928 480.5C795.337 481.744 793.889 482.786 792.5 484.268C792.312 512.846 792.269 541.426 792.371 570.004C792.375 574.152 792.055 600.223 792.881 602.775C794.654 604.306 795.376 604.007 797.544 603.366C796.967 615.948 797.993 693.837 796.353 696.81C793.019 695.002 789.671 693.222 786.308 691.47C786.909 687.807 786.603 668.317 786.594 663.263L786.557 601.749L786.622 490.249C786.796 467.204 787.609 439.232 786.597 416.614Z"/><path fill="#1E4273" d="M728.823 448.461C732.375 446.573 736.045 444.391 739.554 442.385L739.544 504.774C739.541 511.101 738.741 535.353 740.558 539.924C736.245 543.149 732.795 545.926 729.144 549.934C728.067 547.962 728.714 541.93 728.782 539.307C728.924 533.558 728.983 527.808 728.96 522.058L728.823 448.461Z"/><path fill="#1E4273" d="M671.933 479.998C675.591 477.903 678.705 476.279 682.495 474.427L682.506 536.401C682.509 544.508 682.068 560.318 682.739 567.816L682.518 569.505C682.518 570.774 682.583 573.224 682.456 574.381C678.902 574.486 676.667 574.63 673.176 575.809C672.463 573.487 672.566 571.885 672.507 569.472C671.63 562.355 672.053 547.227 672.05 539.473L671.933 479.998Z"/><path fill="#1E4273" d="M673.799 568.813C675.577 568.944 681.122 569.215 682.518 569.505C682.518 570.774 682.583 573.224 682.456 574.381C678.902 574.486 676.667 574.63 673.176 575.809C672.463 573.487 672.566 571.885 672.507 569.472L673.799 568.813Z"/><path fill="#1E4273" d="M673.799 568.813C674.747 568.084 680.749 568.039 682.739 567.816L682.518 569.505C681.122 569.215 675.577 568.944 673.799 568.813Z"/><path fill="#1E4273" d="M557.046 543.094C560.647 541.341 563.837 539.483 567.566 537.79L567.573 613.087C567.574 615.767 567.912 632.356 567.073 633.434L566.9 633.506C563.863 634.165 560.787 635.971 557.987 637.414C556.275 634.989 557.006 609.564 557.013 604.952L557.046 543.094Z"/><path fill="#79A9E4" d="M500.263 847.178C503.616 849.174 506.677 851.105 510.293 852.614L510.033 853.422C506.138 855.406 486.004 866.03 483.933 868.231L482.397 867.552C483.332 866.109 482.903 859.024 482.86 856.838C486.873 854.127 495.685 849.659 500.263 847.178Z"/><path fill="#1E4273" d="M477.868 566.935C479.766 569.325 478.829 577.77 476.932 580.4C474.335 584 473.927 584.349 469.672 585.443C468.292 583.353 469.809 575.509 470.194 572.556C472.873 569.526 474.404 568.791 477.868 566.935Z"/><path fill="#5486C9" d="M136.978 393.809C140.982 396.055 164.999 408.784 167.045 410.654C168.306 416.638 166.73 441.944 167.753 444.673L169.216 445.316C169.987 450.112 169.08 457.343 169.577 462.67C170.337 456.794 168.489 449.483 170.8 444.406C172.166 443.033 172.52 443.061 174.363 442.595C174.624 437.556 173.773 416.894 174.467 414.328C179.074 417.162 184.377 419.805 189.147 422.471C198.213 427.626 207.308 432.732 216.43 437.788L284.242 475.482L422.508 552.4C423.987 553.204 424.332 553.357 425.974 553.334C427.308 552.493 427.178 552.459 427.81 550.975C432.581 553.606 455.51 567.774 458.674 568.135C459.244 571.793 459.715 600.608 458.609 602.899L457.256 603.788C456.66 606.876 456.919 625.158 456.923 629.276L456.971 687.984L456.937 817.059C456.951 836.845 456.271 861.705 457.114 881.164C465.474 876.977 473.289 871.779 482.397 867.552L483.933 868.231C486.402 869.631 487.408 870.273 489.633 872.023C481.488 877.428 472.741 881.809 464.133 886.409C462.325 887.376 460.215 888.218 458.763 889.704C460.026 896.027 457.929 920.134 459.521 923.867L458.567 924.341C455.277 923.313 430.229 908.959 427.131 906.711C426.868 903.925 426.962 900.631 426.959 897.796C407.414 885.947 382.38 873.063 362.095 861.896L239.566 794.176L197.826 771.33C192.962 768.653 181.986 762.929 178.032 759.947C174.78 761.932 172.025 763.634 168.616 765.321C165.582 764.572 146.936 754.06 143.076 751.923C140.639 750.478 140.179 750.031 138.146 748.03C137.787 739.981 137.708 722.18 138.344 714.674L141.307 712.588C142.954 711.427 143.971 711.086 145.847 710.291C146.634 693.465 145.982 671.125 145.979 654.005L145.965 545.522L145.986 473.656C145.996 463.364 146.568 444.126 145.563 434.683C142.912 433.438 139.592 431.396 136.995 429.891L136.978 393.809Z"/><defs><linearGradient id="gradient_0" gradientUnits="userSpaceOnUse" x1="265.64917" y1="587.17651" x2="177.94305" y2="581.42218"><stop offset="0" stop-color="#455051"/><stop offset="1" stop-color="#0F2F62"/></linearGradient></defs><path fill="url(#gradient_0)" d="M136.978 393.809C140.982 396.055 164.999 408.784 167.045 410.654C168.306 416.638 166.73 441.944 167.753 444.673L169.216 445.316C169.987 450.112 169.08 457.343 169.577 462.67C170.337 456.794 168.489 449.483 170.8 444.406C172.166 443.033 172.52 443.061 174.363 442.595C177.782 444.761 183.326 447.644 186.235 449.645C214.183 464.921 241.957 480.677 269.919 495.951C271.81 496.984 274.35 498.404 276.083 499.619C272.869 499.135 270.329 499.364 267.588 501.138L267.859 501.338C266.982 502.349 266.704 502.301 265.424 502.821C268.058 502.629 268.61 502.47 271.004 503.513L269.136 504.47C265.987 506.531 262.593 508.291 259.278 510.081L259.081 510.537C257.072 511.513 256.817 511.243 255.969 513.519C254.817 513.55 253.635 512.055 252.538 511.061C247.833 513.747 243.035 516.566 238.276 519.133C236.878 520.269 235.357 521.433 234.109 522.711C233.034 521.274 233.112 519.188 232.958 517.312L232.702 517.904C231.506 520.751 231.927 520.991 231.631 521.91C229.569 528.3 222.925 535.066 222.033 542.514C222.057 545.139 222.682 544.916 222.936 546.863C222.127 550.349 221.204 559.129 222.535 562.522C224.704 565.849 224.243 566.279 224.932 569.849C225.593 573.269 224.459 574.523 224.378 577.003L222.531 578.386C223.234 580.605 223.885 582.686 224.489 584.943C225.149 587.19 225.168 588.114 226.835 589.582L226.721 591.363L225.825 591.895C225.641 595.6 226.877 601.49 227.781 605.112C229.837 607.176 230.856 605.544 233.43 608.078C238.207 612.781 237.424 620.775 239.285 625.244L206.465 643.954L206.362 704.387C204.021 704.914 203.668 705.163 201.491 706.291C196.707 707.148 189.877 713.166 186.581 712.947L186.139 712.012C182.877 712.719 178.38 712.214 176.305 713.792C179.12 713.99 183.67 713.686 185.882 714.536L185.98 714.816C181.702 716.928 172.63 722.264 169.089 723.531C165.362 721.757 153.996 715.443 150.49 713.253L148.971 712.616L147.687 711.761L145.847 710.291C146.634 693.465 145.982 671.125 145.979 654.005L145.965 545.522L145.986 473.656C145.996 463.364 146.568 444.126 145.563 434.683C142.912 433.438 139.592 431.396 136.995 429.891L136.978 393.809Z"/><path fill="#5486C9" d="M136.978 393.809C140.982 396.055 164.999 408.784 167.045 410.654C168.306 416.638 166.73 441.944 167.753 444.673L169.216 445.316C169.987 450.112 169.08 457.343 169.577 462.67L169.558 593.252L169.567 635.393C169.568 641.714 169.305 650.554 169.613 656.711L169.582 701.679C169.586 706.312 169.859 719.726 169.089 723.531C165.362 721.757 153.996 715.443 150.49 713.253L148.971 712.616L147.687 711.761L145.847 710.291C146.634 693.465 145.982 671.125 145.979 654.005L145.965 545.522L145.986 473.656C145.996 463.364 146.568 444.126 145.563 434.683C142.912 433.438 139.592 431.396 136.995 429.891L136.978 393.809Z"/><path fill="#3A6BAE" d="M148.971 712.616C151.427 707.072 150.456 674.566 150.459 665.501L150.476 506.312L150.476 458.478C150.486 453.271 150.225 439.495 150.887 434.778C152.427 441.564 151.748 456.039 151.703 462.987L151.757 494.49L151.663 660.835C151.675 667.527 152.827 709.379 150.882 712.666C150.762 712.868 150.621 713.057 150.49 713.253L148.971 712.616Z"/><path fill="#2F5B99" d="M148.768 410.419C152.584 411.414 153.982 412.442 156.92 415.051C157.382 420.211 157.617 423.521 157.301 428.658C152.425 428.184 151.357 426.929 148.756 422.896C148.551 419.426 148.228 413.718 148.768 410.419Z"/><path fill="#1E4273" d="M174.363 442.595C177.782 444.761 183.326 447.644 186.235 449.645C185.383 460.04 186.03 480.445 186.027 491.607L185.983 573.043L185.952 664.462C185.946 678.189 185.299 698.766 186.139 712.012C182.877 712.719 178.38 712.214 176.305 713.792C179.12 713.99 183.67 713.686 185.882 714.536L185.98 714.816C181.702 716.928 172.63 722.264 169.089 723.531C169.859 719.726 169.586 706.312 169.582 701.679L169.613 656.711C169.305 650.554 169.568 641.714 169.567 635.393L169.558 593.252L169.577 462.67C170.337 456.794 168.489 449.483 170.8 444.406C172.166 443.033 172.52 443.061 174.363 442.595Z"/><path fill="#2E568C" d="M169.613 656.711C170.591 661.012 170.136 668.153 170.197 672.679C170.389 686.78 169.536 701 170.67 715.067C170.842 717.231 170.078 719.741 170.328 721.842C176.115 719.928 175.612 719.599 176.305 713.792C179.12 713.99 183.67 713.686 185.882 714.536L185.98 714.816C181.702 716.928 172.63 722.264 169.089 723.531C169.859 719.726 169.586 706.312 169.582 701.679L169.613 656.711Z"/><path fill="#5C6351" d="M222.531 578.386C221.745 574.321 221.255 572.248 219.954 568.34L219.694 568.343C219.916 570.227 220.828 574.98 220.103 576.103C215.987 573.343 216.073 548.005 217.392 542.978C218.722 541.793 217.997 541.982 219.476 541.92C220.007 543.437 219.799 543.001 218.848 545.006L219.666 546.631C220.48 545.273 221.269 543.901 222.033 542.514C222.057 545.139 222.682 544.916 222.936 546.863C222.127 550.349 221.204 559.129 222.535 562.522C224.704 565.849 224.243 566.279 224.932 569.849C225.593 573.269 224.459 574.523 224.378 577.003L222.531 578.386Z"/><defs><linearGradient id="gradient_1" gradientUnits="userSpaceOnUse" x1="246.63992" y1="515.12732" x2="244.66931" y2="510.88596"><stop offset="0" stop-color="#656B4E"/><stop offset="1" stop-color="#575D52"/></linearGradient></defs><path fill="url(#gradient_1)" d="M265.424 502.821C268.058 502.629 268.61 502.47 271.004 503.513L269.136 504.47C265.987 506.531 262.593 508.291 259.278 510.081L259.081 510.537C257.072 511.513 256.817 511.243 255.969 513.519C254.817 513.55 253.635 512.055 252.538 511.061C247.833 513.747 243.035 516.566 238.276 519.133C236.878 520.269 235.357 521.433 234.109 522.711C233.034 521.274 233.112 519.188 232.958 517.312L233.32 516.746C242.264 513.384 255.468 503.94 265.424 502.821Z"/><path fill="#74754B" d="M259.278 510.081C258.819 508.555 258.917 508.598 259.168 506.991C260.992 503.894 266.116 502.722 269.136 504.47C265.987 506.531 262.593 508.291 259.278 510.081Z"/><path fill="#FEF880" d="M271.004 503.513C274.14 502.501 282.131 504.497 283.349 508.525C290.183 510.298 293.434 512.639 299.799 514.833C300.721 515.151 302.028 514.658 302.926 514.245C306.663 515.99 315.252 520.932 318.998 523.252C315.136 522.696 313.219 519.695 309.611 520.868C310.966 523.934 317.442 525.103 317.552 526.749C317.841 531.044 318.485 537.812 318.662 542.064C320.237 543.044 321.415 543.326 323.053 544.117C325.375 545.239 327.922 547.997 330.254 548.769L329.748 549.713C332.192 554.964 334.421 559.565 336.322 565.051L330.081 569.933L332.814 584.156C336.268 587.459 339.799 588.53 343.368 591.263C343.737 595.194 344.042 598.617 344.145 602.557C346.779 601.129 350.68 598.873 353.347 597.797C354.747 599.467 355.143 602.557 355.502 604.713C353.569 606.248 351.136 608.058 349.399 609.749C347.535 607.718 345.628 605.674 343.793 603.622C341.948 606.777 340.814 608.314 340.049 611.918L339.721 610.509C337.004 610.269 332.193 613.231 330.109 614.948L329.422 615.174C329.895 621.146 333.204 624.874 335.912 629.995C332.649 638.44 329.722 640.619 321.243 644.345C320.358 644.731 319.461 645.092 318.555 645.427L316.703 646.695C314.945 646.423 315.037 645.876 313.474 644.147C312.823 645.675 311.297 647.909 310.921 649.014C311.023 652.802 310.912 657.056 311.089 660.707C311.046 664.431 310.507 673.526 312.039 676.434C305.12 681.063 297.05 684.728 290.5 689.229C289.697 690.288 289.905 720.916 289.67 724.494C285.651 726.271 262.282 739.487 261.636 739.277C259.129 738.287 256.852 736.857 254.524 735.514C238.763 726.419 222.627 717.979 206.949 708.741C205.965 707.121 206.356 706.656 206.362 704.387L206.465 643.954L239.285 625.244C237.424 620.775 238.207 612.781 233.43 608.078C230.856 605.544 229.837 607.176 227.781 605.112C226.877 601.49 225.641 595.6 225.825 591.895L226.721 591.363L226.835 589.582C225.168 588.114 225.149 587.19 224.489 584.943C223.885 582.686 223.234 580.605 222.531 578.386L224.378 577.003C224.459 574.523 225.593 573.269 224.932 569.849C224.243 566.279 224.704 565.849 222.535 562.522C221.204 559.129 222.127 550.349 222.936 546.863C222.682 544.916 222.057 545.139 222.033 542.514C222.925 535.066 229.569 528.3 231.631 521.91C231.927 520.991 231.506 520.751 232.702 517.904L232.958 517.312C233.112 519.188 233.034 521.274 234.109 522.711C235.357 521.433 236.878 520.269 238.276 519.133C243.035 516.566 247.833 513.747 252.538 511.061C253.635 512.055 254.817 513.55 255.969 513.519C256.817 511.243 257.072 511.513 259.081 510.537L259.278 510.081C262.593 508.291 265.987 506.531 269.136 504.47L271.004 503.513Z"/><path fill="#D5A465" d="M239.285 625.244C244.116 622.406 247.011 620.563 252.223 618.414C251.852 622.843 251.279 627.849 251.501 632.238C253.21 634.104 258.688 639.589 260.719 640.092L262.32 641.743L261.496 643.68C265.957 641.523 270.439 639.411 274.941 637.343L279.325 639.021C281.61 644.275 282.627 649.058 284.662 653.937C287.853 654.174 293.562 654.432 296.521 655.001L297.4 654.63C300.226 653.787 307.886 650.319 310.921 649.014C311.023 652.802 310.912 657.056 311.089 660.707C311.046 664.431 310.507 673.526 312.039 676.434C305.12 681.063 297.05 684.728 290.5 689.229C289.697 690.288 289.905 720.916 289.67 724.494C285.651 726.271 262.282 739.487 261.636 739.277C259.129 738.287 256.852 736.857 254.524 735.514C238.763 726.419 222.627 717.979 206.949 708.741C205.965 707.121 206.356 706.656 206.362 704.387L206.465 643.954L239.285 625.244Z"/><path fill="#B6864D" d="M297.4 654.63C300.226 653.787 307.886 650.319 310.921 649.014C311.023 652.802 310.912 657.056 311.089 660.707C311.046 664.431 310.507 673.526 312.039 676.434C305.12 681.063 297.05 684.728 290.5 689.229C289.697 690.288 289.905 720.916 289.67 724.494C285.651 726.271 262.282 739.487 261.636 739.277C262.283 737.529 261.181 682.129 261.707 674.199C265.728 671.144 269.916 669.445 274.223 666.951C281.663 662.643 288.745 658.715 296.521 655.001L297.4 654.63Z"/><path fill="#F0C47E" d="M274.941 637.343L279.325 639.021C281.61 644.275 282.627 649.058 284.662 653.937C287.853 654.174 293.562 654.432 296.521 655.001C288.745 658.715 281.663 662.643 274.223 666.951C269.916 669.445 265.728 671.144 261.707 674.199C260.391 673.199 254.276 669.926 252.557 668.95C246.477 665.501 240.3 661.806 234.12 658.574C240.334 656.105 254.923 647.438 261.496 643.68C265.957 641.523 270.439 639.411 274.941 637.343Z"/><path fill="#F0C47E" d="M239.285 625.244C244.116 622.406 247.011 620.563 252.223 618.414C251.852 622.843 251.279 627.849 251.501 632.238C253.21 634.104 258.688 639.589 260.719 640.092C254.358 643.61 248.019 647.164 241.7 650.756C239.192 652.19 232.673 656.113 230.298 657.009C223.19 652.477 213.974 647.823 206.465 643.954L239.285 625.244Z"/><path fill="#B6864D" d="M260.719 640.092L262.32 641.743L261.496 643.68C254.923 647.438 240.334 656.105 234.12 658.574C233.98 663.23 234.599 671.863 233.798 675.885L233.208 676.165L231.378 675.092C229.709 671.616 230.234 661.349 230.298 657.009C232.673 656.113 239.192 652.19 241.7 650.756C248.019 647.164 254.358 643.61 260.719 640.092Z"/><path fill="#F4C235" d="M271.004 503.513C274.14 502.501 282.131 504.497 283.349 508.525C290.183 510.298 293.434 512.639 299.799 514.833C300.721 515.151 302.028 514.658 302.926 514.245C306.663 515.99 315.252 520.932 318.998 523.252C315.136 522.696 313.219 519.695 309.611 520.868C310.966 523.934 317.442 525.103 317.552 526.749C317.841 531.044 318.485 537.812 318.662 542.064C320.237 543.044 321.415 543.326 323.053 544.117C325.375 545.239 327.922 547.997 330.254 548.769L329.748 549.713C332.192 554.964 334.421 559.565 336.322 565.051L330.081 569.933L332.814 584.156C336.268 587.459 339.799 588.53 343.368 591.263C343.737 595.194 344.042 598.617 344.145 602.557C346.779 601.129 350.68 598.873 353.347 597.797C354.747 599.467 355.143 602.557 355.502 604.713C353.569 606.248 351.136 608.058 349.399 609.749C347.535 607.718 345.628 605.674 343.793 603.622C341.948 606.777 340.814 608.314 340.049 611.918L339.721 610.509C337.004 610.269 332.193 613.231 330.109 614.948C329.82 609.642 329.62 604.178 328.953 598.918C325.384 596.251 322.009 595.012 318.349 591.729C317.23 587.744 316.162 582.027 315.283 577.892C318.278 575.766 320.075 574.4 322.822 571.979C320.827 566.982 317.994 561.479 315.55 556.634C312.545 557.317 309.943 557.701 306.901 558.152C303.426 554.711 300.013 550.442 297.807 546.071C298.484 542.316 298.94 537.818 299.552 533.902C296.702 531.583 291.975 526.717 289.18 524.012C287.149 526.911 285.074 529.778 282.954 532.612C278.846 530.645 276.25 529.624 272.522 527.003C271.144 522.415 269.895 517.913 268.016 513.499C265.014 512.585 262.034 511.598 259.081 510.537L259.278 510.081C262.593 508.291 265.987 506.531 269.136 504.47L271.004 503.513Z"/><path fill="#5C6351" d="M283.349 508.525C290.183 510.298 293.434 512.639 299.799 514.833C300.721 515.151 302.028 514.658 302.926 514.245C306.663 515.99 315.252 520.932 318.998 523.252C315.136 522.696 313.219 519.695 309.611 520.868C310.966 523.934 317.442 525.103 317.552 526.749C317.841 531.044 318.485 537.812 318.662 542.064C315.433 536.898 319.541 530.887 313.482 526.939C312.516 524.29 308.995 521.757 306.772 519.958C305.724 519.006 304.082 517.809 302.92 516.91L297.349 519.555C294.186 516.806 288.948 513.72 284.649 513.565C284.471 512.362 283.692 509.788 283.349 508.525Z"/><path fill="#74754B" d="M313.482 526.939C319.541 530.887 315.433 536.898 318.662 542.064C320.237 543.044 321.415 543.326 323.053 544.117C325.375 545.239 327.922 547.997 330.254 548.769L329.748 549.713C328.084 549.371 326.643 550.013 324.207 549.362C317.654 547.611 315.999 544.725 312.871 539.278C313.096 535.166 313.3 531.053 313.482 526.939Z"/><path fill="#74754B" d="M284.649 513.565C288.948 513.72 294.186 516.806 297.349 519.555L297.409 519.85C295.949 520.647 294.055 521.509 292.529 522.26C287.374 519.382 286.554 518.968 284.649 513.565Z"/><path fill="#F4C235" d="M318.404 611.973L329.422 615.174C329.895 621.146 333.204 624.874 335.912 629.995C332.649 638.44 329.722 640.619 321.243 644.345C320.358 644.731 319.461 645.092 318.555 645.427C320.326 641.95 321.211 640.387 322.203 636.653C319.252 631.982 317.287 629.369 314.525 624.267C315.873 620.43 317.143 615.922 318.404 611.973Z"/><path fill="#74754B" d="M226.835 589.582L227.037 587.946L227.537 587.709C227.651 588.508 227.723 588.728 227.699 589.533C227.947 591.778 231.74 602.905 233.306 604.66C234.58 606.088 241.63 605.237 244.114 604.993C245.256 607.081 252.117 617.323 252.223 618.414C247.011 620.563 244.116 622.406 239.285 625.244C237.424 620.775 238.207 612.781 233.43 608.078C230.856 605.544 229.837 607.176 227.781 605.112C226.877 601.49 225.641 595.6 225.825 591.895L226.721 591.363L226.835 589.582Z"/><path fill="#F4C235" d="M252.538 511.061C253.635 512.055 254.817 513.55 255.969 513.519C257.155 517.249 257.007 521.41 257.032 525.33C253.085 526.806 251.214 527.629 247.496 529.599C245.889 527.673 239.88 520.297 238.276 519.133C243.035 516.566 247.833 513.747 252.538 511.061Z"/><path fill="#F4C235" d="M306.035 635.682C308.597 638.798 310.7 641.227 313.474 644.147C312.823 645.675 311.297 647.909 310.921 649.014C307.886 650.319 300.226 653.787 297.4 654.63C296.989 649.693 296.963 645.606 296.388 640.448C299.529 639.029 302.925 637.24 306.035 635.682Z"/><path fill="#74754B" d="M222.535 562.522C234.35 571.546 232.208 569.75 235.368 583.77C233.215 585.327 229.558 587.825 227.699 589.533C227.723 588.728 227.651 588.508 227.537 587.709L227.037 587.946L226.835 589.582C225.168 588.114 225.149 587.19 224.489 584.943C223.885 582.686 223.234 580.605 222.531 578.386L224.378 577.003C224.459 574.523 225.593 573.269 224.932 569.849C224.243 566.279 224.704 565.849 222.535 562.522Z"/><path fill="#5C6351" d="M224.378 577.003C225.531 579.435 226.386 582.418 226.038 585.112C224.882 585.119 225.394 585.206 224.489 584.943C223.885 582.686 223.234 580.605 222.531 578.386L224.378 577.003Z"/><defs><linearGradient id="gradient_2" gradientUnits="userSpaceOnUse" x1="225.13359" y1="533.70416" x2="233.39261" y2="537.74225"><stop offset="0" stop-color="#575F52"/><stop offset="1" stop-color="#747653"/></linearGradient></defs><path fill="url(#gradient_2)" d="M222.033 542.514C222.925 535.066 229.569 528.3 231.631 521.91C231.927 520.991 231.506 520.751 232.702 517.904L232.958 517.312C233.112 519.188 233.034 521.274 234.109 522.711L230.842 526.63C232.149 530.792 233.538 533.491 235.687 537.31L236.848 540.641C231.84 542.177 230.532 543.043 225.929 545.256C225.048 545.782 224.057 546.274 223.342 546.964L222.936 546.863C222.682 544.916 222.057 545.139 222.033 542.514Z"/><path fill="#74754B" d="M229.211 539.462C231.571 538.774 233.385 538.172 235.687 537.31L236.848 540.641C231.84 542.177 230.532 543.043 225.929 545.256C226.809 542.47 227.505 541.732 229.211 539.462Z"/><path fill="#F4C235" d="M236.848 540.641C235.55 544.548 234.582 548.015 233.519 551.998C230.576 550.803 225.615 549.013 223.342 546.964C224.057 546.274 225.048 545.782 225.929 545.256C230.532 543.043 231.84 542.177 236.848 540.641Z"/><path fill="#F4C235" d="M267.794 634.188L274.941 637.343C270.439 639.411 265.957 641.523 261.496 643.68L262.32 641.743C264.322 639.453 266.067 636.716 267.794 634.188Z"/><path fill="#F4C235" d="M300.052 609.007C292.956 624.789 278.536 621.227 267.488 612.254C256.269 603.143 249.81 588.493 248.123 574.368C246.924 564.334 250.377 549.104 261.688 546.446C263.721 545.97 266.575 546.277 268.735 546.123L269.474 546.067C272.353 547.013 274.551 547.851 277.249 549.288C295.106 558.802 309.77 589.72 300.052 609.007Z"/><path fill="#74754B" d="M269.474 546.067C272.353 547.013 274.551 547.851 277.249 549.288C295.106 558.802 309.77 589.72 300.052 609.007C282.302 609.217 266.353 582.303 265.896 566.593C265.708 560.118 265.003 551.316 269.474 546.067Z"/><path fill="#5C6351" d="M281.81 569.134C286.807 570.747 286.168 575.921 283.489 579.386C277.611 577.632 276.43 571.98 281.81 569.134Z"/><path fill="#79A9E4" d="M201.491 706.291C203.668 705.163 204.021 704.914 206.362 704.387C206.356 706.656 205.965 707.121 206.949 708.741C222.627 717.979 238.763 726.419 254.524 735.514C256.852 736.857 259.129 738.287 261.636 739.277C262.282 739.487 285.651 726.271 289.67 724.494C289.828 734.303 289.805 744.114 289.602 753.922C306.793 764.085 327.205 775.218 344.914 784.837C350.738 781.781 363.784 773.957 368.984 771.898L369.027 798.288C377.068 803.115 387.62 808.563 395.875 813.29C400.346 815.85 420.431 827.381 424.355 828.663C427.925 826.812 431.506 824.982 435.098 823.172C435.061 831.635 435.359 843.194 434.928 851.334C434.987 857.344 435.121 863.334 434.814 869.337C438.343 871.121 455.218 879.434 457.114 881.164C465.474 876.977 473.289 871.779 482.397 867.552L483.933 868.231C486.402 869.631 487.408 870.273 489.633 872.023C481.488 877.428 472.741 881.809 464.133 886.409C462.325 887.376 460.215 888.218 458.763 889.704C460.026 896.027 457.929 920.134 459.521 923.867L458.567 924.341C455.277 923.313 430.229 908.959 427.131 906.711C426.868 903.925 426.962 900.631 426.959 897.796C407.414 885.947 382.38 873.063 362.095 861.896L239.566 794.176L197.826 771.33C192.962 768.653 181.986 762.929 178.032 759.947C174.78 761.932 172.025 763.634 168.616 765.321C165.582 764.572 146.936 754.06 143.076 751.923C140.639 750.478 140.179 750.031 138.146 748.03C137.787 739.981 137.708 722.18 138.344 714.674L141.307 712.588C142.954 711.427 143.971 711.086 145.847 710.291L147.687 711.761L148.971 712.616L150.49 713.253C153.996 715.443 165.362 721.757 169.089 723.531C172.63 722.264 181.702 716.928 185.98 714.816L185.882 714.536C183.67 713.686 179.12 713.99 176.305 713.792C178.38 712.214 182.877 712.719 186.139 712.012L186.581 712.947C189.877 713.166 196.707 707.148 201.491 706.291Z"/><path fill="#5486C9" d="M173.957 728.048L174.751 727.115C179.534 727.988 211.19 746.256 218.161 750.02L390.384 844.664C403.939 851.978 419.145 861.046 432.645 867.925L432.713 868.43C429.674 869.438 429.12 870.306 427.098 872.587C431.498 874.689 456.925 889.845 458.763 889.704C460.026 896.027 457.929 920.134 459.521 923.867L458.567 924.341C455.277 923.313 430.229 908.959 427.131 906.711C426.868 903.925 426.962 900.631 426.959 897.796C407.414 885.947 382.38 873.063 362.095 861.896L239.566 794.176L197.826 771.33C192.962 768.653 181.986 762.929 178.032 759.947C174.78 761.932 172.025 763.634 168.616 765.321C167.747 763.507 168.053 761.878 168.142 759.813C168.126 750.912 168.401 739.924 167.851 731.251C169.959 730.254 171.913 729.163 173.957 728.048Z"/><path fill="#2F5B99" d="M173.957 728.048C174.055 732.091 173.411 756.483 174.543 758.21C175.706 758.735 177.014 759.231 178.032 759.947C174.78 761.932 172.025 763.634 168.616 765.321C167.747 763.507 168.053 761.878 168.142 759.813C168.126 750.912 168.401 739.924 167.851 731.251C169.959 730.254 171.913 729.163 173.957 728.048Z"/><path fill="#2F5B99" d="M174.543 758.21C175.706 758.735 177.014 759.231 178.032 759.947C174.78 761.932 172.025 763.634 168.616 765.321C167.747 763.507 168.053 761.878 168.142 759.813C169.919 759.108 172.653 758.596 174.543 758.21Z"/><path fill="#1E4273" d="M353.698 834.219C357.339 835.141 390.702 853.397 394.142 856.162C396.114 859.737 395.815 866.023 395.162 869.948C387.126 868.854 364.52 853.778 356.125 849.636C352.715 847.954 352.286 837.652 353.698 834.219Z"/><path fill="#1E4273" d="M214.393 756.986C217.497 758.019 220.947 760.138 223.807 761.798C232.752 766.991 241.944 771.748 250.953 776.812C252.764 777.829 254.27 779.154 254.406 781.324C254.61 784.595 255.134 789.053 253.1 791.815C249.549 791.293 216.652 773.516 213.571 770.57C213.299 767.025 212.426 759.722 214.393 756.986Z"/><path fill="#2F5B99" d="M438.97 887.159C448.784 888.441 448.43 899.34 448.455 906.68C443.789 905.879 442.783 905.213 439.662 901.814C438.938 896.336 438.955 892.626 438.97 887.159Z"/><path fill="#2E568C" d="M201.491 706.291C203.668 705.163 204.021 704.914 206.362 704.387C206.356 706.656 205.965 707.121 206.949 708.741C222.627 717.979 238.763 726.419 254.524 735.514C256.852 736.857 259.129 738.287 261.636 739.277C262.282 739.487 285.651 726.271 289.67 724.494C289.828 734.303 289.805 744.114 289.602 753.922C306.793 764.085 327.205 775.218 344.914 784.837C350.738 781.781 363.784 773.957 368.984 771.898L369.027 798.288C377.068 803.115 387.62 808.563 395.875 813.29C400.346 815.85 420.431 827.381 424.355 828.663C427.925 826.812 431.506 824.982 435.098 823.172C435.061 831.635 435.359 843.194 434.928 851.334C424.739 847.032 410.444 838.061 400.312 832.658C388.745 826.49 377.203 819.823 365.771 813.465L244.693 746.875L206.875 725.669C201.543 722.713 191.309 716.758 185.98 714.816L185.882 714.536C183.67 713.686 179.12 713.99 176.305 713.792C178.38 712.214 182.877 712.719 186.139 712.012L186.581 712.947C189.877 713.166 196.707 707.148 201.491 706.291Z"/><path fill="#1E4273" d="M186.139 712.012L186.581 712.947C189.877 713.166 196.707 707.148 201.491 706.291C198.358 708.452 189.492 713.693 185.882 714.536C183.67 713.686 179.12 713.99 176.305 713.792C178.38 712.214 182.877 712.719 186.139 712.012Z"/><path fill="#5486C9" d="M138.344 714.674C140.243 715.718 142.997 717.121 144.746 718.266C150.362 721.409 155.905 724.627 161.453 727.889C163.47 729.075 166.03 730.115 167.851 731.251C168.401 739.924 168.126 750.912 168.142 759.813C168.053 761.878 167.747 763.507 168.616 765.321C165.582 764.572 146.936 754.06 143.076 751.923C140.639 750.478 140.179 750.031 138.146 748.03C137.787 739.981 137.708 722.18 138.344 714.674Z"/><path fill="#5486C9" d="M138.344 714.674C140.243 715.718 142.997 717.121 144.746 718.266C144.713 723.945 144.482 748.059 143.1 751.756C143.08 751.809 143.084 751.867 143.076 751.923C140.639 750.478 140.179 750.031 138.146 748.03C137.787 739.981 137.708 722.18 138.344 714.674Z"/><path fill="#2F5B99" d="M149.206 729.657C153.158 730.522 154.257 732.015 157.065 734.843C158.483 739.989 158.898 742.854 157.794 748.088C154.2 748.06 151.882 745.304 149.017 742.851C148.989 738.443 148.896 734.055 149.206 729.657Z"/><path fill="#FEF880" d="M358.826 589.496C362.714 597.411 362.439 600.199 371.903 599.952C372.636 597.295 373.074 593.865 374.573 592.02C377.418 590.926 380.3 594.1 382.429 596.004L383.074 605.497C385.781 607.832 387.728 609.322 390.641 611.405C393.579 609.525 394.234 609.026 396.742 606.613C398.831 611.124 401.767 613.017 404.119 617.178C402.664 619.413 401.095 621.952 399.555 624.085C400.863 627.708 401.96 630.698 404.142 633.94C407.5 635.438 409.938 635.869 413.238 637.042C413.982 640.618 415.327 645.696 415.736 649.072L409.063 650.153C408.901 653.319 408.591 657.312 408.708 660.409C415.576 668.409 417.672 667.269 413.156 678.007C414.662 680.379 415.063 681.796 415.163 684.673L415.069 685.038C411.324 687.087 406.741 689.856 402.995 691.565C400.479 692.644 398.779 693.472 396.092 694.104L396.074 694.41C396.08 695.585 396.047 696.979 396.115 698.131C395.699 704.106 395.928 710.424 395.732 716.462C391.66 719.424 374.695 728.753 369.41 731.303C369.431 740.259 369.39 749.215 369.286 758.17C369.251 761.654 369.38 768.816 368.984 771.898C363.784 773.957 350.738 781.781 344.914 784.837C327.205 775.218 306.793 764.085 289.602 753.922C289.805 744.114 289.828 734.303 289.67 724.494C289.905 720.916 289.697 690.288 290.5 689.229C297.05 684.728 305.12 681.063 312.039 676.434C310.507 673.526 311.046 664.431 311.089 660.707C310.912 657.056 311.023 652.802 310.921 649.014C311.297 647.909 312.823 645.675 313.474 644.147C315.037 645.876 314.945 646.423 316.703 646.695L318.555 645.427C319.461 645.092 320.358 644.731 321.243 644.345C329.722 640.619 332.649 638.44 335.912 629.995C333.204 624.874 329.895 621.146 329.422 615.174L330.109 614.948C332.193 613.231 337.004 610.269 339.721 610.509L340.049 611.918C340.814 608.314 341.948 606.777 343.793 603.622C345.628 605.674 347.535 607.718 349.399 609.749C351.136 608.058 353.569 606.248 355.502 604.713C355.143 602.557 354.747 599.467 353.347 597.797C351.035 592.413 354.429 591.888 358.826 589.496Z"/><path fill="#D5A465" d="M289.67 724.494C289.905 720.916 289.697 690.288 290.5 689.229C294.468 691.338 311.311 700.088 313.583 702.324C313.137 706.826 311.781 720.127 317.094 721.29C318.147 718.574 315.94 707.496 317.972 704.328C325.941 709.43 338.003 714.835 344.837 720.078C347.5 718.103 352.286 715.731 355.247 713.892C366.18 707.102 382.562 699.668 392.581 692.19L393.745 691.188L396.092 694.104L396.074 694.41C396.08 695.585 396.047 696.979 396.115 698.131C395.699 704.106 395.928 710.424 395.732 716.462C391.66 719.424 374.695 728.753 369.41 731.303C369.431 740.259 369.39 749.215 369.286 758.17C369.251 761.654 369.38 768.816 368.984 771.898C363.784 773.957 350.738 781.781 344.914 784.837C327.205 775.218 306.793 764.085 289.602 753.922C289.805 744.114 289.828 734.303 289.67 724.494Z"/><path fill="#B6864D" d="M392.581 692.19L393.745 691.188L396.092 694.104L396.074 694.41C396.08 695.585 396.047 696.979 396.115 698.131C395.699 704.106 395.928 710.424 395.732 716.462C391.66 719.424 374.695 728.753 369.41 731.303C369.431 740.259 369.39 749.215 369.286 758.17C369.251 761.654 369.38 768.816 368.984 771.898C363.784 773.957 350.738 781.781 344.914 784.837C345.228 778.447 344.846 768.658 344.835 761.879L344.837 720.078C347.5 718.103 352.286 715.731 355.247 713.892C366.18 707.102 382.562 699.668 392.581 692.19Z"/><path fill="#F0C47E" d="M357.091 677.731C358.06 677.49 364.135 673.881 365.67 673.079L367.874 675.29C370.908 678.806 369.968 683.12 370.521 688.155C372.512 689.111 377.779 691.763 379.708 692.145C384.246 694.229 388.941 687.976 392.581 692.19C382.562 699.668 366.18 707.102 355.247 713.892C352.286 715.731 347.5 718.103 344.837 720.078C338.003 714.835 325.941 709.43 317.972 704.328C315.94 707.496 318.147 718.574 317.094 721.29C311.781 720.127 313.137 706.826 313.583 702.324C326.37 695.273 345.21 685.603 357.091 677.731Z"/><path fill="#B6864D" d="M357.091 677.731C358.06 677.49 364.135 673.881 365.67 673.079L367.874 675.29C362.979 679.179 358.388 681.245 353.257 684.416C341.969 691.39 329.101 697.362 317.972 704.328C315.94 707.496 318.147 718.574 317.094 721.29C311.781 720.127 313.137 706.826 313.583 702.324C326.37 695.273 345.21 685.603 357.091 677.731Z"/><path fill="#F0C47E" d="M339.565 660.839C341.434 659.937 344.023 658.19 345.902 659.194C346.148 661.422 349.185 664.207 350.72 666.352C353.049 669.605 353.87 670.203 355.027 674.191C356.335 675.175 356.562 675.376 358.228 675.77C357.636 676.57 357.292 676.769 357.091 677.731C345.21 685.603 326.37 695.273 313.583 702.324C311.311 700.088 294.468 691.338 290.5 689.229C297.05 684.728 305.12 681.063 312.039 676.434C321.314 671.512 329.953 665.726 339.565 660.839Z"/><path fill="#74754B" d="M330.109 614.948C332.193 613.231 337.004 610.269 339.721 610.509L340.049 611.918C340.305 616.956 349.886 620.806 345.584 628.586C342.846 630.975 339.451 629.022 339.107 634.089C338.961 636.24 340.103 641.477 340.717 643.661C345.353 644.74 347.72 645.07 350.334 649.466C352.264 652.71 353.755 656.492 351.286 659.748C348.704 661.043 348.458 660.481 345.902 659.194C344.023 658.19 341.434 659.937 339.565 660.839C329.953 665.726 321.314 671.512 312.039 676.434C310.507 673.526 311.046 664.431 311.089 660.707C310.912 657.056 311.023 652.802 310.921 649.014C311.297 647.909 312.823 645.675 313.474 644.147C315.037 645.876 314.945 646.423 316.703 646.695L318.555 645.427C319.461 645.092 320.358 644.731 321.243 644.345C329.722 640.619 332.649 638.44 335.912 629.995C333.204 624.874 329.895 621.146 329.422 615.174L330.109 614.948Z"/><path fill="#3D4D59" d="M311.656 654.373C318.016 652 321.959 650.974 328.636 649.717C335.603 652.858 337.426 653.242 339.565 660.839C329.953 665.726 321.314 671.512 312.039 676.434C310.507 673.526 311.046 664.431 311.089 660.707C311.303 658.59 311.534 656.499 311.656 654.373Z"/><path fill="#F4C235" d="M402.995 691.565C400.504 680.149 396.596 682.01 405.967 672.725C407.927 674.623 410.542 677.268 413.156 678.007C414.662 680.379 415.063 681.796 415.163 684.673L415.069 685.038C411.324 687.087 406.741 689.856 402.995 691.565Z"/><path fill="#F4C235" d="M381.226 683.454C384.06 683.53 387.535 683.523 390.309 683.703C391.428 686.21 392.574 688.705 393.745 691.188L392.581 692.19C388.941 687.976 384.246 694.229 379.708 692.145C380.195 689.304 380.666 686.262 381.226 683.454Z"/><path fill="#F4C235" d="M360.826 669.737C362.432 670.863 364.047 671.977 365.67 673.079C364.135 673.881 358.06 677.49 357.091 677.731C357.292 676.769 357.636 676.57 358.228 675.77C356.562 675.376 356.335 675.175 355.027 674.191C357.97 673.645 358.833 672.125 360.826 669.737Z"/><path fill="#F4C235" d="M368.079 615.588L374.723 616.67C390.956 624.194 400.316 642.011 394.938 659.475C379.421 688.631 337.696 634.21 368.079 615.588Z"/><path fill="#898446" d="M374.723 616.67C390.956 624.194 400.316 642.011 394.938 659.475C380.872 655.127 372.291 639.338 373.769 625.01C374.056 622.224 374.382 619.451 374.723 616.67Z"/><defs><linearGradient id="gradient_3" gradientUnits="userSpaceOnUse" x1="337.94714" y1="635.53961" x2="420.42932" y2="573.98535"><stop offset="0" stop-color="#515953"/><stop offset="1" stop-color="#2E4358"/></linearGradient></defs><path fill="url(#gradient_3)" d="M318.662 542.064C318.485 537.812 317.841 531.044 317.552 526.749C317.442 525.103 310.966 523.934 309.611 520.868C313.219 519.695 315.136 522.696 318.998 523.252C323.475 525.258 328.18 528.015 332.429 530.51C363.106 548.525 395.692 564.437 426.205 582.635C427.54 588.069 429.937 588.538 434.647 590.993C435.207 601.682 434.877 614.783 434.895 625.607L434.86 687.123C434.903 690.386 435.298 703.34 434.506 705.827C430.759 703.772 427.193 701.831 423.353 699.933C414.922 705.541 404.557 711.204 395.732 716.462C395.928 710.424 395.699 704.106 396.115 698.131C396.047 696.979 396.08 695.585 396.074 694.41L396.092 694.104C398.779 693.472 400.479 692.644 402.995 691.565C406.741 689.856 411.324 687.087 415.069 685.038L415.163 684.673C415.063 681.796 414.662 680.379 413.156 678.007C417.672 667.269 415.576 668.409 408.708 660.409C408.591 657.312 408.901 653.319 409.063 650.153L415.736 649.072C415.327 645.696 413.982 640.618 413.238 637.042C409.938 635.869 407.5 635.438 404.142 633.94C401.96 630.698 400.863 627.708 399.555 624.085C401.095 621.952 402.664 619.413 404.119 617.178C401.767 613.017 398.831 611.124 396.742 606.613C394.234 609.026 393.579 609.525 390.641 611.405C387.728 609.322 385.781 607.832 383.074 605.497L382.429 596.004C380.3 594.1 377.418 590.926 374.573 592.02C373.074 593.865 372.636 597.295 371.903 599.952C362.439 600.199 362.714 597.411 358.826 589.496C354.429 591.888 351.035 592.413 353.347 597.797C350.68 598.873 346.779 601.129 344.145 602.557C344.042 598.617 343.737 595.194 343.368 591.263C339.799 588.53 336.268 587.459 332.814 584.156L330.081 569.933L336.322 565.051C334.421 559.565 332.192 554.964 329.748 549.713L330.254 548.769C327.922 547.997 325.375 545.239 323.053 544.117C321.415 543.326 320.237 543.044 318.662 542.064Z"/><path fill="#F4C235" d="M376.659 583.333C377.462 583.768 377.951 583.814 378.827 583.575C381.328 582.892 384.39 584.62 386.645 584.637C390.64 586.627 394.24 587.533 395.83 591.403C395.481 601.752 398.347 604.784 408.118 601.184C412.102 604.572 413.934 606.853 416.463 611.503L413.561 617.173C416.928 625.54 416.814 625.488 423.981 629.783C426.635 631.373 428.78 640.783 427.209 643.425C427.064 643.833 425.664 644.937 425.304 645.226C424.594 649.767 425.193 653.288 425.299 657.843C426.566 658.926 427.936 660.05 429.119 661.205C427.2 673.899 424.24 673.419 413.156 678.007C417.672 667.269 415.576 668.409 408.708 660.409C408.591 657.312 408.901 653.319 409.063 650.153L415.736 649.072C415.327 645.696 413.982 640.618 413.238 637.042C409.938 635.869 407.5 635.438 404.142 633.94C401.96 630.698 400.863 627.708 399.555 624.085C401.095 621.952 402.664 619.413 404.119 617.178C401.767 613.017 398.831 611.124 396.742 606.613C394.234 609.026 393.579 609.525 390.641 611.405C387.728 609.322 385.781 607.832 383.074 605.497L382.429 596.004C380.3 594.1 377.418 590.926 374.573 592.02C373.074 593.865 372.636 597.295 371.903 599.952C362.439 600.199 362.714 597.411 358.826 589.496C360.824 588.121 369.433 583.655 371.735 583.768C373.352 583.516 375.022 583.445 376.659 583.333Z"/><path fill="#74754B" d="M376.659 583.333C377.462 583.768 377.951 583.814 378.827 583.575C381.328 582.892 384.39 584.62 386.645 584.637C383.372 586.035 379.918 587.9 376.725 589.539C375.081 587.599 373.417 585.675 371.735 583.768C373.352 583.516 375.022 583.445 376.659 583.333Z"/><path fill="#898446" d="M425.299 657.843C422.057 655.274 420.52 651.749 421.904 647.671C422.36 646.328 424.095 645.827 425.304 645.226C424.594 649.767 425.193 653.288 425.299 657.843Z"/><defs><linearGradient id="gradient_4" gradientUnits="userSpaceOnUse" x1="335.94598" y1="593.3634" x2="344.4454" y2="582.58044"><stop offset="0" stop-color="#867F43"/><stop offset="1" stop-color="#696D4E"/></linearGradient></defs><path fill="url(#gradient_4)" d="M330.254 548.769C332.983 554.439 335.445 559.269 337.315 565.31C335.129 567.086 331.349 569.761 330.77 572.461C331.538 573.933 338.119 577.429 339.864 578.682C339.866 574.899 338.514 571.811 338.766 568.329C341.829 571.457 341.505 579.554 341.833 582.699C341.955 583.873 349.6 590.37 353.114 590.197C361.718 589.771 367.413 579.637 376.659 583.333C375.022 583.445 373.352 583.516 371.735 583.768C369.433 583.655 360.824 588.121 358.826 589.496C354.429 591.888 351.035 592.413 353.347 597.797C350.68 598.873 346.779 601.129 344.145 602.557C344.042 598.617 343.737 595.194 343.368 591.263C339.799 588.53 336.268 587.459 332.814 584.156L330.081 569.933L336.322 565.051C334.421 559.565 332.192 554.964 329.748 549.713L330.254 548.769Z"/><path fill="#74754B" d="M395.83 591.403C397.06 593.145 397.698 596.677 397.572 598.83C401.814 599.633 404.493 597.843 408.205 600.259C411.9 602.664 416.243 607.433 417.379 611.705L418.477 612.457C419.203 609.949 417.185 607.139 417.892 605.456C419.479 606.797 419.504 606.339 419.669 608.592C419.961 612.571 419.614 616.956 419.305 620.926L418.726 621.013C418.3 619.219 417.49 615.252 416.814 613.749C415.816 615.47 418.139 622.523 418.601 625.08C425.614 629.959 426.72 629.908 428.867 639.003C429.285 640.773 428.514 642.36 429.374 643.934L429.89 643.818C430.215 639.441 427.514 629.034 428.329 626.679L428.633 626.673C431.567 634.827 431.079 644.421 430.085 652.847C429.393 658.716 429.947 665.78 427.863 671.271C423.226 675.608 420.257 675.685 415.289 678.573L415.286 679.955C417.644 680.174 424.783 675.602 427.209 674.361C428.179 673.865 428.951 670.711 430.183 670.583C428.499 678.21 417.552 677.304 415.163 684.673C415.063 681.796 414.662 680.379 413.156 678.007C424.24 673.419 427.2 673.899 429.119 661.205C427.936 660.05 426.566 658.926 425.299 657.843C425.193 653.288 424.594 649.767 425.304 645.226C425.664 644.937 427.064 643.833 427.209 643.425C428.78 640.783 426.635 631.373 423.981 629.783C416.814 625.488 416.928 625.54 413.561 617.173L416.463 611.503C413.934 606.853 412.102 604.572 408.118 601.184C398.347 604.784 395.481 601.752 395.83 591.403Z"/><path fill="#3D4D59" d="M396.115 698.131C397.254 699.858 396.052 710.633 396.647 714.06C398.548 714.506 417.104 701.973 421.578 700.473C430.563 697.461 425.59 699.459 433.682 700.96C434.508 698.829 433.256 691.53 433.96 687.531L434.86 687.123C434.903 690.386 435.298 703.34 434.506 705.827C430.759 703.772 427.193 701.831 423.353 699.933C414.922 705.541 404.557 711.204 395.732 716.462C395.928 710.424 395.699 704.106 396.115 698.131Z"/><path fill="#74754B" d="M402.995 691.565C406.741 689.856 411.324 687.087 415.069 685.038C413.043 688.865 404.623 691.196 404.595 692.39C409.024 691.466 411.334 689.086 412.72 688.894C411.527 693.828 400.863 696.007 396.074 694.41L396.092 694.104C398.779 693.472 400.479 692.644 402.995 691.565Z"/><path fill="#D5A465" d="M423.353 699.933C427.193 701.831 430.759 703.772 434.506 705.827C435.247 707.222 435.121 719.39 435.16 721.662L435.031 725.835L435.001 756.401C431.13 757.849 426.999 760.159 423.813 762.802C424.286 768.404 423.924 774.807 424.046 780.489C424.384 796.182 423.402 813.078 424.355 828.663C420.431 827.381 400.346 815.85 395.875 813.29C387.62 808.563 377.068 803.115 369.027 798.288L368.984 771.898C369.38 768.816 369.251 761.654 369.286 758.17C369.39 749.215 369.431 740.259 369.41 731.303C374.695 728.753 391.66 719.424 395.732 716.462C404.557 711.204 414.922 705.541 423.353 699.933Z"/><path fill="#F0C47E" d="M423.353 699.933C427.193 701.831 430.759 703.772 434.506 705.827C435.247 707.222 435.121 719.39 435.16 721.662L435.031 725.835L435.001 756.401C431.13 757.849 426.999 760.159 423.813 762.802C419.033 758.401 404.14 751.265 397.411 746.55L396.42 746.801C396.491 749.958 397.592 762.482 394.878 763.643C394.593 763.452 393.512 762.751 393.389 762.539C391.708 759.657 392.653 747.919 392.704 744.682C391.506 744.185 387.111 741.469 385.681 740.648L369.41 731.303C374.695 728.753 391.66 719.424 395.732 716.462C404.557 711.204 414.922 705.541 423.353 699.933Z"/><path fill="#F0C47E" d="M397.411 746.55C400.884 745.23 407.566 741.284 410.999 739.373C419.051 734.934 427.062 730.421 435.031 725.835L435.001 756.401C431.13 757.849 426.999 760.159 423.813 762.802C419.033 758.401 404.14 751.265 397.411 746.55Z"/><path fill="#B6864D" d="M394.293 744.652C406.996 738.207 422.051 728.759 435.16 721.662L435.031 725.835C427.062 730.421 419.051 734.934 410.999 739.373C407.566 741.284 400.884 745.23 397.411 746.55L396.42 746.801C396.491 749.958 397.592 762.482 394.878 763.643C394.593 763.452 393.512 762.751 393.389 762.539C391.708 759.657 392.653 747.919 392.704 744.682L394.293 744.652Z"/><path fill="white" d="M396.518 782.529C401.074 784.189 411.763 790.438 416.519 793.086C416.559 801.031 416.517 808.976 416.394 816.919C413.169 816.309 400.515 808.761 396.71 806.608C396.578 798.583 396.514 790.556 396.518 782.529Z"/><path fill="#B6864D" d="M423.813 762.802C426.999 760.159 431.13 757.849 435.001 756.401L434.898 799.204C434.891 806.126 434.673 816.373 435.098 823.172C431.506 824.982 427.925 826.812 424.355 828.663C423.402 813.078 424.384 796.182 424.046 780.489C423.924 774.807 424.286 768.404 423.813 762.802Z"/><path fill="#4C544E" d="M265.424 502.821C266.704 502.301 266.982 502.349 267.859 501.338L267.588 501.138C270.329 499.364 272.869 499.135 276.083 499.619C285.258 504.259 293.94 509.688 302.926 514.245C302.028 514.658 300.721 515.151 299.799 514.833C293.434 512.639 290.183 510.298 283.349 508.525C282.131 504.497 274.14 502.501 271.004 503.513C268.61 502.47 268.058 502.629 265.424 502.821Z"/><path fill="#3A6BAE" d="M438.979 566.919C449.389 571.032 448.004 574.99 447.912 585.327C437.091 583.142 438.516 575.791 438.979 566.919Z"/><path fill="#79A9E4" d="M291.562 315.097C293.336 315.402 318.202 328.76 320.432 330.419L450.977 402.03L499.493 428.413C506.595 432.305 519.929 440.257 526.976 443.523C529.306 443.007 531.626 442.447 533.935 441.845C537.873 447.801 541.792 449.711 547.04 454.499L546.856 455.249C548.44 456.617 552.201 458.833 554.134 459.607C560 462.988 573.016 469.968 577.869 473.431C576.297 474.283 574.082 475.392 572.611 476.293L574.664 476.922C576.839 475.959 578.884 474.763 580.94 473.571C587.9 469.534 595.299 466.22 602.055 461.839C615.201 456.231 631.196 447.006 643.628 439.978C660.078 430.597 676.606 421.353 693.21 412.247L786.872 360.445C798.062 354.151 814.446 345.89 824.82 339.246C829.282 342.317 847.065 351.127 848.833 353.516L527.618 530.801C517.678 536.32 507.333 542.323 497.237 547.468C487.007 552.68 476.304 557.169 466.478 563.453C464.399 564.782 460.322 566.527 458.674 568.135C455.51 567.774 432.581 553.606 427.81 550.975C427.178 552.459 427.308 552.493 425.974 553.334C424.332 553.357 423.987 553.204 422.508 552.4L284.242 475.482L216.43 437.788C207.308 432.732 198.213 427.626 189.147 422.471C184.377 419.805 179.074 417.162 174.467 414.328C173.773 416.894 174.624 437.556 174.363 442.595C172.52 443.061 172.166 443.033 170.8 444.406C168.489 449.483 170.337 456.794 169.577 462.67C169.08 457.343 169.987 450.112 169.216 445.316L167.753 444.673C166.73 441.944 168.306 416.638 167.045 410.654C164.999 408.784 140.982 396.055 136.978 393.809C138.328 391.068 163.956 377.713 168.379 375.288L175.721 378.869C183.98 374.843 193.595 369.143 201.787 364.604L237.117 345.255C244.509 341.125 252.665 336.314 260.235 332.654C262.817 331.318 267.037 328.653 269.925 327.052C276.977 323.143 284.702 319.218 291.562 315.097Z"/><path fill="#2E568C" d="M320.432 330.419L450.977 402.03L499.493 428.413C506.595 432.305 519.929 440.257 526.976 443.523C529.306 443.007 531.626 442.447 533.935 441.845C537.873 447.801 541.792 449.711 547.04 454.499L546.856 455.249C548.44 456.617 552.201 458.833 554.134 459.607C560 462.988 573.016 469.968 577.869 473.431C576.297 474.283 574.082 475.392 572.611 476.293C571.325 476.747 569.875 477.332 568.551 477.57C559.13 480.319 553.064 482.09 543.399 483.78C539.309 483.223 521.847 472.591 517.269 470.027L462.059 438.955C409.016 410.042 356.244 380.634 303.752 350.732C299.597 348.6 296.581 347.074 292.238 345.345C301.052 341.768 311.466 334.6 320.432 330.419Z"/><path fill="#1E4273" d="M320.432 330.419L450.977 402.03L499.493 428.413C506.595 432.305 519.929 440.257 526.976 443.523C529.306 443.007 531.626 442.447 533.935 441.845C537.873 447.801 541.792 449.711 547.04 454.499L546.856 455.249C548.44 456.617 552.201 458.833 554.134 459.607C560 462.988 573.016 469.968 577.869 473.431C576.297 474.283 574.082 475.392 572.611 476.293C571.325 476.747 569.875 477.332 568.551 477.57C485.475 432.785 402.864 387.144 320.73 340.654C315.335 343.944 308.821 347.139 303.752 350.732C299.597 348.6 296.581 347.074 292.238 345.345C301.052 341.768 311.466 334.6 320.432 330.419Z"/><path fill="#5486C9" d="M533.935 441.845C537.873 447.801 541.792 449.711 547.04 454.499L546.856 455.249C540.188 450.793 533.604 447.835 526.976 443.523C529.306 443.007 531.626 442.447 533.935 441.845Z"/><path fill="#5486C9" d="M225.492 392.903C231.401 396.921 243.19 403.036 249.744 406.666L294.726 431.515L425.126 504.346L456.111 521.584C460.926 524.211 470.917 529.325 475.038 532.237L467.124 537.191C464.609 535.427 462.063 533.71 459.486 532.039C456.19 533.63 453.832 535.018 450.685 536.916C445.791 535.387 435.922 529.252 431.113 526.562L393.966 505.852L273.858 439.142C263.105 433.129 252.307 427.235 241.548 421.236C230.795 415.241 219.578 407.962 208.531 402.805C213.475 399.637 220.258 395.132 225.492 392.903Z"/><path fill="#3A6BAE" d="M291.562 315.097C293.336 315.402 318.202 328.76 320.432 330.419C311.466 334.6 301.052 341.768 292.238 345.345C296.581 347.074 299.597 348.6 303.752 350.732C356.244 380.634 409.016 410.042 462.059 438.955L517.269 470.027C521.847 472.591 539.309 483.223 543.399 483.78L543.312 484.177C538.339 483.497 532.061 485.381 526.538 482.685C516.406 477.737 506.571 471.34 496.745 465.76L437.177 432.518L373.152 396.802C345.981 381.831 317.977 366.972 291.468 350.995C285.743 347.544 263.89 335.922 260.235 332.654C262.817 331.318 267.037 328.653 269.925 327.052C276.977 323.143 284.702 319.218 291.562 315.097Z"/><path fill="#3A6BAE" d="M225.862 382.3C261.532 402.688 298.288 422.549 334.26 442.503L407.994 483.952C433.127 497.944 460.624 512.184 485.199 526.954C481.598 528.623 478.52 530.317 475.038 532.237C470.917 529.325 460.926 524.211 456.111 521.584L425.126 504.346L294.726 431.515L249.744 406.666C243.19 403.036 231.401 396.921 225.492 392.903L225.862 382.3Z"/><path fill="#2F5B99" d="M167.045 410.654C174.492 407.214 192.848 395.213 199.001 393.268C199.969 394.497 199.726 394.985 199.984 396.792C200.383 398.427 200.041 398.014 201.01 399.16C192.661 404.568 183.096 408.838 174.467 414.328C173.773 416.894 174.624 437.556 174.363 442.595C172.52 443.061 172.166 443.033 170.8 444.406C168.489 449.483 170.337 456.794 169.577 462.67C169.08 457.343 169.987 450.112 169.216 445.316L167.753 444.673C166.73 441.944 168.306 416.638 167.045 410.654Z"/><path fill="#1E4273" d="M199.984 396.792C204.974 393.78 221.096 384.264 225.862 382.3L225.492 392.903C220.258 395.132 213.475 399.637 208.531 402.805C206.044 401.519 203.541 400.355 201.01 399.16C200.041 398.014 200.383 398.427 199.984 396.792Z"/><path fill="#5486C9" d="M572.611 476.293L574.664 476.922C569.394 480.898 558.692 486.185 552.479 489.234C550.72 488.367 544.047 485.3 543.312 484.177L543.399 483.78C553.064 482.09 559.13 480.319 568.551 477.57C569.875 477.332 571.325 476.747 572.611 476.293Z"/><path fill="#5486C9" d="M245.286 370.953C249.805 368.754 269.9 357.18 272.746 356.601C300.997 372.505 329.377 388.177 357.884 403.617L443.705 451.366L513.1 489.912C519.501 493.402 526.096 497.531 532.461 500.758C528.968 502.579 525.369 504.38 522.038 506.466C516.355 509.808 510.553 512.946 504.646 515.874C498.138 511.781 486.864 505.963 479.79 501.947L413.87 465.258L254.903 376.632C251.579 374.907 248.467 372.922 245.286 370.953Z"/><path fill="#3A6BAE" d="M272.746 356.601C300.997 372.505 329.377 388.177 357.884 403.617L443.705 451.366L513.1 489.912C519.501 493.402 526.096 497.531 532.461 500.758C528.968 502.579 525.369 504.38 522.038 506.466C519.938 504.844 517.507 503.561 515.182 502.269C454.12 468.338 393.066 434.339 332.022 400.37L293.671 379.14C289.12 376.629 276.193 369.719 272.688 367.031C273.231 365.281 272.846 358.611 272.746 356.601Z"/><path fill="#1E4273" d="M245.286 370.953C249.805 368.754 269.9 357.18 272.746 356.601C272.846 358.611 273.231 365.281 272.688 367.031C267.713 369.362 259.619 373.723 254.903 376.632C251.579 374.907 248.467 372.922 245.286 370.953Z"/><path fill="#3A6BAE" d="M454.379 547.089C455.835 547.036 457.291 547.003 458.748 546.992C461.611 546.979 464.342 546.779 466.425 548.847C467.404 552.483 465.692 553.084 462.78 553.935C461.417 554.015 460.052 554.058 458.686 554.064C456.032 554.076 450.293 553.698 450.421 550.192C451.549 548.416 452.458 548.155 454.379 547.089Z"/><path fill="#3A6BAE" d="M167.931 389.689C171.06 389.895 172.652 389.767 174.749 392.026C175.759 396.606 170.564 396.924 167.297 397.086C163.972 396.854 162.328 397.045 159.904 394.926C159.283 393.269 159.296 394.085 159.902 392.393C162.435 389.873 164.355 390.103 167.931 389.689Z"/><path fill="#C0D8F5" d="M269.531 190.91C284.775 178.146 300.706 171.12 320.783 180.01C326.247 182.43 331.673 185.888 336.927 188.825L364.377 204.216L430.942 241.287C436.929 244.73 452.191 253.716 458.345 256.387C461.478 258.453 464.75 260.128 468.056 261.891C476.384 267.428 494.419 276.61 503.82 281.824L567.673 317.804C573.028 320.873 579.462 324.206 584.578 327.234L584.642 327.857L583.611 328.179C569.272 327.422 559.416 332.027 548.777 341.573C547.66 342.571 546.562 343.591 545.483 344.63C536.415 354.053 531.115 363.294 526.776 375.487C524.715 383.214 523.062 389.998 522.855 398.119C522.841 416.386 524.793 425.56 533.935 441.845C531.626 442.447 529.306 443.007 526.976 443.523C519.929 440.257 506.595 432.305 499.493 428.413L450.977 402.03L320.432 330.419C318.202 328.76 293.336 315.402 291.562 315.097C283.3 309.894 269.454 304.104 262.433 298.11C252.182 289.358 245.196 273.166 244.43 259.731C242.054 247.97 245.508 232.784 249.695 221.708C252.379 213.135 262.774 196.597 269.531 190.91Z"/><path fill="#9BB4D6" d="M249.695 221.708C258.528 227.679 272.788 235.002 282.313 240.204C300.281 249.899 318.172 259.734 335.985 269.709L526.776 375.487C524.715 383.214 523.062 389.998 522.855 398.119C522.841 416.386 524.793 425.56 533.935 441.845C531.626 442.447 529.306 443.007 526.976 443.523C519.929 440.257 506.595 432.305 499.493 428.413L450.977 402.03L320.432 330.419C318.202 328.76 293.336 315.402 291.562 315.097C283.3 309.894 269.454 304.104 262.433 298.11C252.182 289.358 245.196 273.166 244.43 259.731C242.054 247.97 245.508 232.784 249.695 221.708Z"/><path fill="#79A9E4" d="M244.43 259.731C244.511 258.162 244.347 256.372 245.078 255.211C252.468 258.658 261.203 263.829 268.394 267.808L312.209 292.078L450.009 368.366L497.513 394.407C503.596 397.761 517.752 405.193 522.412 409.311C522.391 407.281 522.059 399.331 522.855 398.119C522.841 416.386 524.793 425.56 533.935 441.845C531.626 442.447 529.306 443.007 526.976 443.523C519.929 440.257 506.595 432.305 499.493 428.413L450.977 402.03L320.432 330.419C318.202 328.76 293.336 315.402 291.562 315.097C283.3 309.894 269.454 304.104 262.433 298.11C252.182 289.358 245.196 273.166 244.43 259.731Z"/><path fill="#9BB4D6" d="M269.531 190.91C284.775 178.146 300.706 171.12 320.783 180.01C326.247 182.43 331.673 185.888 336.927 188.825L364.377 204.216L430.942 241.287C436.929 244.73 452.191 253.716 458.345 256.387C461.478 258.453 464.75 260.128 468.056 261.891C476.384 267.428 494.419 276.61 503.82 281.824L567.673 317.804C573.028 320.873 579.462 324.206 584.578 327.234L584.642 327.857L583.611 328.179C569.272 327.422 559.416 332.027 548.777 341.573C547.66 342.571 546.562 343.591 545.483 344.63C542.709 341.867 518.404 328.953 513.174 326.104L484.029 309.885C412.325 270.598 340.824 230.939 269.531 190.91Z"/><path fill="#2F5B99" d="M576.472 191.632C577.469 191.017 577.723 190.547 578.548 190.956C592.955 198.097 611.933 209.174 625.645 216.726L824.126 326.846C824.633 328.019 824.542 327.585 824.495 328.929C824.528 332.326 824.476 335.877 824.82 339.246C814.446 345.89 798.062 354.151 786.872 360.445L693.21 412.247C676.606 421.353 660.078 430.597 643.628 439.978C631.196 447.006 615.201 456.231 602.055 461.839C595.299 466.22 587.9 469.534 580.94 473.571C578.884 474.763 576.839 475.959 574.664 476.922L572.611 476.293C574.082 475.392 576.297 474.283 577.869 473.431C573.016 469.968 560 462.988 554.134 459.607C552.201 458.833 548.44 456.617 546.856 455.249L547.04 454.499C541.792 449.711 537.873 447.801 533.935 441.845C524.793 425.56 522.841 416.386 522.855 398.119C523.062 389.998 524.715 383.214 526.776 375.487C531.115 363.294 536.415 354.053 545.483 344.63C546.562 343.591 547.66 342.571 548.777 341.573C559.416 332.027 569.272 327.422 583.611 328.179C588.479 329.35 591.966 330.953 596.021 333.798C598.651 334.616 602.996 337.546 605.699 339.11C612.247 342.907 618.816 346.668 625.405 350.394L679.722 380.494C685.241 383.597 697.942 390.248 702.528 393.382C707.241 391.199 715.193 386.475 720.006 383.825C722.098 382.958 727.799 379.666 729.5 378.382C735.033 374.787 742.658 370.91 748.601 367.702C750.784 366.892 763.607 358.921 766.043 357.427C769.133 355.99 773.095 353.666 776.16 351.98C782.895 348.385 789.251 344.852 795.907 341.11C789.142 337.809 781.275 333.133 774.601 329.384L737.683 308.661L650.225 260.236C625.913 246.744 601.729 232.888 577.503 219.238C573.273 216.854 565.971 212.45 561.568 210.936C567.419 207.25 571.569 204.112 578.048 201.3L579.002 200.667C575.302 197.671 578.286 196.014 576.472 191.632Z"/><path fill="#5486C9" d="M578.048 201.3C585.909 204.177 597.502 211.606 605.235 215.818L680.42 257.542L772.976 308.753C784.22 315.03 803.824 325.05 813.747 331.667C808.877 334.563 801.119 338.74 795.907 341.11C789.142 337.809 781.275 333.133 774.601 329.384L737.683 308.661L650.225 260.236C625.913 246.744 601.729 232.888 577.503 219.238C573.273 216.854 565.971 212.45 561.568 210.936C567.419 207.25 571.569 204.112 578.048 201.3Z"/><path fill="#79A9E4" d="M596.021 333.798C598.651 334.616 602.996 337.546 605.699 339.11C612.247 342.907 618.816 346.668 625.405 350.394L679.722 380.494C685.241 383.597 697.942 390.248 702.528 393.382C697.134 396.231 686.953 401.153 682.293 404.081C681.029 404.901 673.921 409.47 673.067 409.791C666.677 413.012 660.838 416.334 654.583 419.61C651.501 415.548 595.174 386.988 585.974 379.99L587.639 379.742C589.962 379.629 596.728 380.391 599.795 380.534C601.038 377.571 602.27 373.543 603.316 370.419L603.399 369.984C604.544 363.512 604.433 358.031 604.565 351.471C603.576 343.11 601.26 339.889 596.021 333.798Z"/><path fill="#5486C9" d="M603.316 370.419C619.774 380.625 637.19 389.524 654.045 399.063C660.081 402.48 667.281 406.153 673.067 409.791C666.677 413.012 660.838 416.334 654.583 419.61C651.501 415.548 595.174 386.988 585.974 379.99L587.639 379.742C589.962 379.629 596.728 380.391 599.795 380.534C601.038 377.571 602.27 373.543 603.316 370.419Z"/><path fill="#3A6BAE" d="M604.565 351.471C605.138 354.592 604.936 357.561 604.864 360.733L655.069 388.688C663.707 393.546 673.723 399.627 682.293 404.081C681.029 404.901 673.921 409.47 673.067 409.791C667.281 406.153 660.081 402.48 654.045 399.063C637.19 389.524 619.774 380.625 603.316 370.419L603.399 369.984C604.544 363.512 604.433 358.031 604.565 351.471Z"/><path fill="#79A9E4" d="M548.729 358.866C559.127 364.923 569.849 370.465 580.154 376.711C581.877 377.755 584.157 379.197 585.974 379.99C595.174 386.988 651.501 415.548 654.583 419.61C648.76 422.887 641.558 427.274 635.75 430.207C633.43 431.828 628.648 434.643 626.023 435.607C624.627 434.568 620.691 432.485 619.056 431.617C591.274 416.87 563.947 400.035 536.151 385.448C536.949 382.16 537.582 378.989 538.967 375.903L539.141 375.455L539.439 374.713C542.047 368.096 544.866 364.822 548.729 358.866Z"/><path fill="#3A6BAE" d="M538.967 375.903C546.846 381.349 557.916 386.485 566.365 391.223L614.395 418.451C619.94 421.552 631.231 426.888 635.75 430.207C633.43 431.828 628.648 434.643 626.023 435.607C624.627 434.568 620.691 432.485 619.056 431.617C591.274 416.87 563.947 400.035 536.151 385.448C536.949 382.16 537.582 378.989 538.967 375.903Z"/><path fill="#5486C9" d="M536.151 385.448C563.947 400.035 591.274 416.87 619.056 431.617C620.691 432.485 624.627 434.568 626.023 435.607C607.574 444.313 592.405 451.054 571.253 447.176C543.128 442.02 530.672 411.125 536.151 385.448Z"/><path fill="#2E568C" d="M548.729 358.866C555.781 348.853 572.679 336.244 584.705 345.618C595.259 353.845 590.892 368.952 587.639 379.742L585.974 379.99C584.157 379.197 581.877 377.755 580.154 376.711C569.849 370.465 559.127 364.923 548.729 358.866Z"/><path fill="#3A6BAE" d="M554.134 459.607L554.898 459.761C565.084 461.9 571.552 465.322 582.873 464.212C587.154 463.792 599.304 460.715 602.055 461.839C595.299 466.22 587.9 469.534 580.94 473.571C578.884 474.763 576.839 475.959 574.664 476.922L572.611 476.293C574.082 475.392 576.297 474.283 577.869 473.431C573.016 469.968 560 462.988 554.134 459.607Z"/><path fill="#5486C9" d="M532.039 226.729C548.626 236.355 565.624 245.374 582.316 254.733L695.739 318.225L741.17 343.383C747.769 347.018 760.156 353.397 766.043 357.427C763.607 358.921 750.784 366.892 748.601 367.702C746.452 365.527 732.335 357.858 728.816 355.882L682.301 330.075C626.02 299.516 570.152 268.205 514.711 236.149C520.546 232.357 525.845 229.772 532.039 226.729Z"/><path fill="#5486C9" d="M485.793 252.132C489.431 255.572 508.293 265.513 513.437 268.371L557.698 293.149L656.058 348.209C676.786 359.837 699.791 371.819 720.006 383.825C715.193 386.475 707.241 391.199 702.528 393.382C697.942 390.248 685.241 383.597 679.722 380.494L625.405 350.394C618.816 346.668 612.247 342.907 605.699 339.11C602.996 337.546 598.651 334.616 596.021 333.798C591.966 330.953 588.479 329.35 583.611 328.179L584.642 327.857L584.578 327.234C579.462 324.206 573.028 320.873 567.673 317.804L503.82 281.824C494.419 276.61 476.384 267.428 468.056 261.891C474.121 258.091 479.286 255.091 485.793 252.132Z"/><path fill="#3A6BAE" d="M485.574 242.503C493.132 245.805 502.171 251.159 509.528 255.257L548.815 277.123L701.552 362.299C710.956 367.551 720.147 373.25 729.5 378.382C727.799 379.666 722.098 382.958 720.006 383.825C699.791 371.819 676.786 359.837 656.058 348.209L557.698 293.149L513.437 268.371C508.293 265.513 489.431 255.572 485.793 252.132C486.126 249.909 485.737 244.802 485.574 242.503Z"/><path fill="#3A6BAE" d="M532.328 216.278C539.222 220.385 546.751 223.981 553.784 227.879L597.418 252.311L714.524 317.858C734.46 329.028 756.656 340.394 776.16 351.98C773.095 353.666 769.133 355.99 766.043 357.427C760.156 353.397 747.769 347.018 741.17 343.383L695.739 318.225L582.316 254.733C565.624 245.374 548.626 236.355 532.039 226.729C532.95 224.987 532.435 218.487 532.328 216.278Z"/><path fill="#79A9E4" d="M579.856 148.348C589.187 152.836 601.787 160.128 610.76 165.389C602.668 171.695 588.359 176.932 580.288 182.613C569.162 177.486 559.418 170.432 548.81 165.443C559.119 159.887 569.543 153.653 579.856 148.348Z"/><path fill="#3A6BAE" d="M576.998 162.639C581.324 162.485 585.154 161.971 588.166 165.806C588.515 169.253 584.668 169.53 582.032 169.805C577.824 169.941 575.096 170.282 571.967 166.972C571.517 163.881 574.468 163.322 576.998 162.639Z"/><path fill="#2F5B99" d="M610.76 165.389C611.253 167.731 611.042 175.313 610.97 178.05C609.715 177.227 608.99 176.761 607.641 176.048C600.004 177.896 583.994 190.489 579.056 189.239C578.867 186.123 579.091 185.507 580.288 182.613C588.359 176.932 602.668 171.695 610.76 165.389Z"/><path fill="#1E4273" d="M458.345 256.387C462.948 253.971 482.012 242.543 485.574 242.503C485.737 244.802 486.126 249.909 485.793 252.132C479.286 255.091 474.121 258.091 468.056 261.891C464.75 260.128 461.478 258.453 458.345 256.387Z"/><path fill="#5486C9" d="M548.81 165.443C559.418 170.432 569.162 177.486 580.288 182.613C579.091 185.507 578.867 186.123 579.056 189.239C571.241 185.519 563.491 181.167 555.768 177.215C551.716 175.142 553.176 176.421 549.39 175.765C548.817 174.644 548.956 167.65 548.81 165.443Z"/><path fill="#1E4273" d="M504.819 230.839C511.697 226.764 525.052 219.712 532.328 216.278C532.435 218.487 532.95 224.987 532.039 226.729C525.845 229.772 520.546 232.357 514.711 236.149C510.87 234.306 508.418 233.071 504.819 230.839Z"/><path fill="#1E4273" d="M576.472 191.632C578.286 196.014 575.302 197.671 579.002 200.667L578.048 201.3C571.569 204.112 567.419 207.25 561.568 210.936C558.093 209.144 554.979 207.371 551.595 205.407C559.206 201.656 568.575 195.815 576.472 191.632Z"/><path fill="#3A6BAE" d="M852.943 329.577C856.638 329.345 863.254 328.955 865.094 332.848C864.693 335.194 862.809 335.697 860.844 336.589C857.665 337.117 848.171 336.956 848.982 332.145C850.221 330.572 851.036 330.422 852.943 329.577Z"/><path fill="#2F5B99" d="M878.269 652.365C881.797 652.724 884.038 654.597 885.919 657.546C886.621 699.884 892.478 688.184 855.702 708.844C853.919 708.663 848.481 704.999 844.97 703.693C845.785 703.14 846.184 702.824 846.945 702.214C848.329 698.754 848.576 674.396 848.52 669.412L848.516 669.105L849.119 668.848C852.425 665.907 868.424 658.382 873.64 655.316C875.774 654.205 876.506 653.927 878.269 652.365Z"/><path fill="#2E568C" d="M849.119 668.848C851.071 669.91 854.021 671.36 855.125 673.313C854.88 674.074 855.482 706.721 855.702 708.844C853.919 708.663 848.481 704.999 844.97 703.693C845.785 703.14 846.184 702.824 846.945 702.214C848.329 698.754 848.576 674.396 848.52 669.412L848.516 669.105L849.119 668.848Z"/><path fill="#79A9E4" d="M878.269 652.365C881.797 652.724 884.038 654.597 885.919 657.546C883.269 658.672 880.757 659.936 878.174 661.202C875.101 662.928 857.063 673.45 855.125 673.313C854.021 671.36 851.071 669.91 849.119 668.848C852.425 665.907 868.424 658.382 873.64 655.316C875.774 654.205 876.506 653.927 878.269 652.365Z"/><path fill="#1E4273" d="M874.038 671.891C874.87 672.184 874.571 672.146 875.292 673.033C875.956 676.628 875.132 681.266 874.624 684.924C872.048 688.234 871.035 689.18 867.2 690.85L866.276 690.402C864.956 688.497 866.317 679.068 866.6 676.204C869.603 673.981 870.644 673.493 874.038 671.891Z"/></svg>